<?xml version="1.0" encoding="utf-8"?>
<!-- Generator: Adobe Illustrator 27.5.0, SVG Export Plug-In . SVG Version: 6.00 Build 0)  -->
<svg version="1.1" xmlns="http://www.w3.org/2000/svg" xmlns:xlink="http://www.w3.org/1999/xlink" x="0px" y="0px"
	 viewBox="0 0 3710 3710" style="enable-background:new 0 0 3710 3710;" xml:space="preserve">
<g id="Background">
	<g>
		<g>
			<rect style="fill:#FFFFFF;" width="3710" height="3710"/>
		</g>
	</g>
</g>
<g id="Illustration">
	<g>
		<path style="fill:#F4F7FA;" d="M708.02,2778.683c169.789,199.874,399.081,354.265,691.008,438.049
			c289.083,82.968,716.585,133.827,1009.972,56.061c926.577-245.603,883.826-1226.614,791.168-1536.198
			c-127.266-425.216-125.276-1056.093-629.99-1208.243c-142.467-42.948-302.715-52.267-450.645-49.462
			c-505.472,9.586-1353.772-89.951-1646.834,460.108c-89.318,167.644-108.852,370.99-126.352,558.6
			C303.874,1952.949,412.88,2431.246,708.02,2778.683z"/>
		<g>
			<g>
				<path style="fill:#97A6B7;" d="M3155.959,1844.48c1.863,18.377-10.71,33.101-28.119,32.86l-170.602-2.363
					c-17.792-0.246-33.483-15.565-35.188-34.19l-2.974-32.482c-1.698-18.545,11.182-33.279,28.909-32.932l170.054,3.33
					c17.346,0.34,32.815,15.427,34.67,33.727L3155.959,1844.48z"/>
				<path style="fill:#97A6B7;" d="M1045.57,1811.161c0.257,20.612-17.456,37.1-39.428,36.796l-216.012-2.99
					c-22.518-0.312-41.023-17.557-41.023-38.482v-36.483c0-20.824,18.343-37.322,40.755-36.884l215.015,4.209
					c21.871,0.428,39.953,17.381,40.209,37.896L1045.57,1811.161z"/>
			</g>
			<g>
				<path style="fill:#97A6B7;" d="M2094.289,2983.992c-163.01,7.944-325.342-17.873-481.59-77.34
					c-152.581-58.07-291.832-145.186-412.89-258.7c-121.417-113.844-217.417-247.562-284.782-396.562
					c-69.359-153.406-104.591-315.087-105.012-479.487c-0.415-162.149,33.077-316.228,98.588-457.567
					c62.096-133.975,150.001-250.452,260.39-346.518c108.146-94.12,232.43-163.89,369.017-208.15
					c138.662-44.933,284.398-61.59,433.391-50.315c146.61,11.095,288.411,48.645,422.233,111.276
					c128.017,59.913,244.221,140.533,346.089,239.855c101.616,99.071,184.577,212.47,246.99,337.676
					c64.934,130.26,105.138,268.598,119.385,411.994c14.422,145.151,1.48,287.674-39.133,424.06
					c-39.911,134.031-104.868,257.03-193.876,365.448c-90.81,110.62-202.155,200.601-331.473,266.732
					C2404.957,2936.283,2254.432,2976.188,2094.289,2983.992z M1972.562,730.841
					c-611.391-45.555-1137.901,406.853-1135.552,1041.512c2.481,670.601,586.555,1217.325,1255.876,1185.665
					c623.486-29.492,1050.457-556.056,992.148-1148.215C3029.498,1245.804,2545.716,773.546,1972.562,730.841z"/>
			</g>
			<g>
				<path style="fill:#D8DEE8;" d="M2028.657,870.448c1.011,18.002-13.024,31.649-31.961,30.412l-33.434-2.186
					c-19.047-1.244-35.518-16.964-36.454-35.06l-9.001-174.092c-0.92-17.793,14.128-30.956,32.988-29.48l32.638,2.553
					c18.754,1.468,34.505,16.965,35.499,34.667L2028.657,870.448z"/>
				<path style="fill:#D8DEE8;" d="M2148.374,3002.286c1.209,21.53-13.951,39.847-34.533,40.918l-36.346,1.894
					c-20.711,1.078-38.709-15.622-39.829-37.289l-10.768-208.268c-1.1-21.269,15.171-39.112,35.662-39.857l35.452-1.287
					c20.365-0.74,37.553,15.781,38.74,36.918L2148.374,3002.286z"/>
			</g>
			<g>
				<path style="fill:#D8DEE8;" d="M3155.959,1825.926c1.863,18.378-10.71,33.101-28.119,32.86l-170.602-2.363
					c-17.792-0.246-33.483-15.565-35.188-34.19l-2.974-32.482c-1.698-18.545,11.182-33.279,28.909-32.932l170.054,3.33
					c17.346,0.34,32.815,15.427,34.67,33.727L3155.959,1825.926z"/>
				<path style="fill:#D8DEE8;" d="M1045.57,1792.608c0.257,20.612-17.456,37.1-39.428,36.796l-216.012-2.99
					c-22.518-0.312-41.023-17.557-41.023-38.482v-36.483c0-20.824,18.343-37.322,40.755-36.884l215.015,4.209
					c21.871,0.428,39.953,17.381,40.209,37.896L1045.57,1792.608z"/>
			</g>
			<g>
				<path style="fill:#FFFFFF;" d="M2864.925,1360.661c-102.628-173.59-252.28-319.305-429.593-417.9
					c-137.635-76.604-293.399-125.682-458.742-137.332c-168.382-11.864-328.408,16.34-470.62,77.315
					c-189.802,81.274-348.338,221.118-450.935,401.531c-80.835,141.986-126.669,308.541-125.29,489.624
					c1.4,183.895,51.271,359.794,138.533,515.323c113.989,203.378,289.859,368.578,499.988,470.234
					c159.587,77.295,337.08,116.941,519.791,109.197c179.117-7.592,341.699-59.869,478.695-144.522
					c173.798-107.279,306.272-266.544,380.879-453.725c56.11-140.592,79.859-297.586,64.193-461.821
					C2996.372,1646.592,2944.171,1494.584,2864.925,1360.661z M2299.259,2214.541c-68.997,43.63-151.824,69.314-242.746,70.252
					c-91.837,0.947-179.883-23.462-257.003-66.979c-77.119-43.529-142.847-105.931-190.142-180.585
					c-47.428-74.884-76.034-161.619-79.057-253.326c-2.999-91.002,19.6-174.956,61.135-245.739
					c40.915-69.708,100.135-126.497,171.311-164.786c70.69-38.016,153.189-57.82,241.596-54.064
					c87.56,3.719,170.227,30.109,242.078,72.932c71.228,42.463,132.194,101.319,176.934,170.748
					c44.992,69.838,73.837,150.762,80.227,237.123c6.436,86.994-10.688,168.899-46.214,239.807
					C2421.626,2111.257,2367.162,2171.59,2299.259,2214.541z"/>
				<g>
					<linearGradient id="SVGID_1_" gradientUnits="userSpaceOnUse" x1="1301.0319" y1="2617.8599" x2="2840.4766" y2="-1302.1616">
						<stop  offset="0" style="stop-color:#FFC444"/>
						<stop  offset="0.9964" style="stop-color:#F36F56"/>
					</linearGradient>
					<path style="fill:url(#SVGID_1_);" d="M2435.332,942.76c-61.62,146.624-124.573,296.417-188.901,449.486
						c-71.851-42.823-154.518-69.213-242.078-72.932c-88.406-3.756-170.906,16.048-241.596,54.064
						c-86.052-164.418-171.647-327.959-256.787-490.635c142.212-60.974,302.239-89.178,470.62-77.315
						C2141.933,817.078,2297.697,866.156,2435.332,942.76z"/>
					
						<linearGradient id="SVGID_00000000218921700122512890000000296830649351388303_" gradientUnits="userSpaceOnUse" x1="1935.4272" y1="3078.1223" x2="3758.5498" y2="-1564.2522">
						<stop  offset="0" style="stop-color:#FFC444"/>
						<stop  offset="0.9964" style="stop-color:#F36F56"/>
					</linearGradient>
					<path style="fill:url(#SVGID_00000000218921700122512890000000296830649351388303_);" d="M2566.751,2724.13
						c-136.996,84.653-299.578,136.93-478.695,144.522c-182.711,7.744-360.203-31.902-519.791-109.197
						c78.917-184.847,155.977-365.344,231.244-541.642c77.121,43.518,165.166,67.926,257.003,66.979
						c90.922-0.938,173.749-26.622,242.746-70.252C2387.941,2383.485,2477.104,2553.346,2566.751,2724.13z"/>
				</g>
				<g>
					
						<linearGradient id="SVGID_00000166637334679640958010000012007195676280397751_" gradientUnits="userSpaceOnUse" x1="2241.1389" y1="3048.2273" x2="3816.7478" y2="-963.8817">
						<stop  offset="0" style="stop-color:#FFC444"/>
						<stop  offset="0.9964" style="stop-color:#F36F56"/>
					</linearGradient>
					<path style="fill:url(#SVGID_00000166637334679640958010000012007195676280397751_);" d="M3011.823,1808.583
						c15.666,164.235-8.083,321.229-64.193,461.821c-161.556-75.951-324.963-152.774-490.253-230.481
						c35.527-70.908,52.651-152.813,46.214-239.807c-6.389-86.36-35.234-167.285-80.227-237.123
						c150.678-69.044,297.824-136.47,441.561-202.333C2944.171,1494.584,2996.372,1646.592,3011.823,1808.583z"/>
					
						<linearGradient id="SVGID_00000112605371074807837160000017844190835339776409_" gradientUnits="userSpaceOnUse" x1="924.8318" y1="2684.8491" x2="2720.4233" y2="-1887.4208">
						<stop  offset="0" style="stop-color:#FFC444"/>
						<stop  offset="0.9964" style="stop-color:#F36F56"/>
					</linearGradient>
					<path style="fill:url(#SVGID_00000112605371074807837160000017844190835339776409_);" d="M1530.311,1783.902
						c3.023,91.707,31.629,178.442,79.057,253.326c-175.675,81.814-355.977,165.783-541.09,251.992
						c-87.262-155.53-137.133-331.428-138.533-515.323c-1.379-181.083,44.456-347.638,125.29-489.624
						c180.943,85.643,359.734,170.267,536.411,253.89C1549.911,1608.947,1527.312,1692.9,1530.311,1783.902z"/>
				</g>
			</g>
			
				<linearGradient id="SVGID_00000096048042316114413140000007881941862785226417_" gradientUnits="userSpaceOnUse" x1="929.7145" y1="1836.1879" x2="3016.5503" y2="1836.1879">
				<stop  offset="0" style="stop-color:#FFC444"/>
				<stop  offset="0.9964" style="stop-color:#F36F56"/>
			</linearGradient>
			<path style="opacity:0.2;fill:url(#SVGID_00000096048042316114413140000007881941862785226417_);" d="M2864.925,1360.661
				c-102.628-173.59-252.28-319.305-429.593-417.9c-137.635-76.604-293.399-125.682-458.742-137.332
				c-168.382-11.864-328.408,16.34-470.62,77.315c-189.802,81.274-348.338,221.118-450.935,401.531
				c-80.835,141.986-126.669,308.541-125.29,489.624c1.4,183.895,51.271,359.794,138.533,515.323
				c113.989,203.378,289.859,368.578,499.988,470.234c159.587,77.295,337.08,116.941,519.791,109.197
				c179.117-7.592,341.699-59.869,478.695-144.522c173.798-107.279,306.272-266.544,380.879-453.725
				c56.11-140.592,79.859-297.586,64.193-461.821C2996.372,1646.592,2944.171,1494.584,2864.925,1360.661z M2689.227,2135.771
				c-55.791,132.726-152.766,244.281-278.231,317.976c-98.165,57.744-213.744,92.284-340.201,95.423
				c-128.236,3.183-252.196-26.282-363.332-81.381c-145.818-72.186-268.053-187.678-347.982-329.063
				c-61.297-108.273-97.208-230.816-99.976-359.333c-2.738-127.138,27.313-244.774,82.087-345.813
				c69.982-129.297,180.183-230.996,313.769-291.496c100.81-45.734,215.091-68.07,336.101-61.356
				c119.432,6.626,232.387,40.845,332.411,95.577c129.22,70.614,238.188,176.233,312.357,302.548
				c57.228,97.34,94.299,207.789,104.158,325.211C2750.346,1922.658,2731.474,2035.443,2689.227,2135.771z"/>
		</g>
		<g>
			<g>
				
					<linearGradient id="SVGID_00000097493109090075076970000006867920780358377378_" gradientUnits="userSpaceOnUse" x1="3388.0989" y1="2712.501" x2="2965.1753" y2="2592.8225">
					<stop  offset="0" style="stop-color:#311944"/>
					<stop  offset="1" style="stop-color:#A03976"/>
				</linearGradient>
				<path style="fill:url(#SVGID_00000097493109090075076970000006867920780358377378_);" d="M3061.2,2682.027
					c13.544,6.876,30.56,0.562,38.006-14.103s2.502-32.129-11.042-39.006c-0.702-0.356-1.418-0.656-2.136-0.942
					c2.517-8.115,4.414-16.293,5.686-24.475c0.776-0.002,1.555-0.015,2.347-0.086c15.453-1.377,27.717-15.577,27.393-31.716
					c-0.323-16.139-13.113-28.107-28.565-26.729c-0.808,0.073-1.601,0.2-2.39,0.34c-1.614-7.998-3.826-15.811-6.616-23.373
					c0.711-0.416,1.418-0.846,2.109-1.33c13.22-9.262,17.448-27.543,9.441-40.831c-8.007-13.288-25.215-16.552-38.436-7.289
					c-0.677,0.475-1.314,0.987-1.944,1.508c-5.222-5.773-10.949-11.122-17.145-16.004c0.436-0.714,0.862-1.438,1.248-2.198
					c7.446-14.666,17.176-30.686,3.526-37.35c-31.577-15.415-45.128-2.219-52.574,12.447c-0.386,0.76-0.718,1.531-1.038,2.304
					c-7.598-2.122-15.296-3.588-23.038-4.398c0.049-0.815,0.086-1.632,0.07-2.46c-0.324-16.139,4.465-24.873-11.046-25.174
					c-33.824-0.657-45.237,14.024-44.913,30.163c0.017,0.844,0.087,1.668,0.171,2.487c-7.751,2.21-15.364,5.034-22.774,8.451
					c-0.352-0.72-0.717-1.435-1.136-2.131c-8.006-13.288-25.215-16.551-38.436-7.289c-13.221,9.263-17.448,27.543-9.441,40.831
					c0.41,0.681,0.86,1.317,1.316,1.946c-5.854,5.855-11.338,12.213-16.404,19.034c-0.655-0.411-1.32-0.813-2.021-1.169
					c-13.544-6.876-30.56-0.563-38.006,14.103c-7.446,14.666-2.502,32.129,11.042,39.006c0.702,0.357,1.418,0.656,2.136,0.942
					c-2.516,8.115-4.414,16.293-5.686,24.475c-0.777,0.002-1.556,0.015-2.347,0.085c-15.453,1.378-27.718,15.578-27.394,31.717
					c0.323,16.14,13.113,28.106,28.566,26.729c0.807-0.072,1.601-0.199,2.389-0.34c1.614,7.998,3.826,15.811,6.616,23.373
					c-0.711,0.416-1.418,0.846-2.109,1.33c-13.22,9.262-17.447,27.543-9.441,40.831c8.007,13.288,34.514,19.462,47.734,10.2
					c0.677-0.475-7.984-3.897-7.354-4.417c5.222,5.772,10.949,11.122,17.145,16.004c-0.435,0.714-0.862,1.438-1.248,2.198
					c-7.446,14.665-2.502,32.129,11.042,39.006c13.544,6.876,30.561,0.563,38.007-14.103c0.386-0.76,0.718-1.531,1.038-2.304
					c7.598,2.121,15.296,3.588,23.038,4.398c-0.048,0.815-0.086,1.632-0.069,2.459c0.323,16.139,13.113,28.106,28.566,26.728
					c15.452-1.377,27.717-15.578,27.393-31.717c-0.017-0.843-0.087-1.668-0.171-2.487c7.751-2.209,15.364-5.034,22.773-8.451
					c0.352,0.72,0.718,1.435,1.136,2.13c8.006,13.288,25.214,16.552,38.435,7.289c13.221-9.263,17.447-27.543,9.441-40.832
					c-0.41-0.68-0.86-1.317-1.316-1.945c5.854-5.855,11.337-12.213,16.404-19.033
					C3059.834,2681.269,3060.498,2681.67,3061.2,2682.027z M2892.358,2684.169c-49.176-24.968-67.125-88.374-40.09-141.622
					c27.035-53.248,88.816-76.173,137.992-51.205s67.125,88.374,40.09,141.621
					C3003.315,2686.212,2941.534,2709.137,2892.358,2684.169z"/>
				
					<linearGradient id="SVGID_00000056410245152301751890000014789225216390826142_" gradientUnits="userSpaceOnUse" x1="3386.9902" y1="2716.418" x2="2964.0654" y2="2596.739">
					<stop  offset="0" style="stop-color:#311944"/>
					<stop  offset="1" style="stop-color:#A03976"/>
				</linearGradient>
				<path style="fill:url(#SVGID_00000056410245152301751890000014789225216390826142_);" d="M3094.061,2603.415
					c15.453-1.378,27.717-15.578,27.393-31.717c-0.323-16.139-13.113-28.107-28.565-26.729c-0.808,0.072-1.601,0.2-2.39,0.34
					c-1.614-7.998-3.826-15.811-6.616-23.373c0.711-0.416,1.418-0.846,2.109-1.33c13.22-9.262,29.576-31.642,20.249-44.039
					c-17.703-23.528-36.023-13.344-49.244-4.082c-0.677,0.475-1.314,0.987-1.944,1.507c-5.222-5.772-10.949-11.121-17.146-16.004
					c0.436-0.714,0.862-1.438,1.248-2.197c4.053-7.982,4.41-16.782,1.734-24.263c-12.769,22.475-25.367,45.044-37.739,67.737
					c39.231,28.748,51.721,85.4,27.199,133.699c-20.78,40.929-62.087,63.911-102.421,61.031c-1.799,4.666-3.566,9.357-5.492,13.978
					c-5.228,12.54-11.168,24.823-17.115,37.088c3.74,0.705,7.497,1.26,11.264,1.655c-0.048,0.816-0.086,1.633-0.069,2.46
					c0.323,16.139,10.122,29.852,38.128,28.366c15.492-0.822,18.155-17.215,17.831-33.354c-0.017-0.843-0.087-1.668-0.171-2.487
					c7.751-2.209,15.364-5.034,22.773-8.451c0.352,0.72,0.718,1.435,1.136,2.13c8.006,13.289,35.782,18.935,49.003,9.672
					c13.221-9.263,6.879-29.925-1.127-43.214c-0.41-0.681-0.86-1.317-1.316-1.946c5.854-5.855,11.337-12.213,16.404-19.033
					c0.656,0.411,1.32,0.813,2.021,1.168c13.544,6.878,30.56,0.563,38.007-14.103c7.446-14.665,2.502-32.129-11.042-39.005
					c-0.702-0.357-1.418-0.656-2.136-0.942c2.517-8.115,4.414-16.294,5.686-24.475
					C3092.49,2603.498,3093.27,2603.485,3094.061,2603.415z"/>
				
					<linearGradient id="SVGID_00000005979213218763535420000013638471912479871635_" gradientUnits="userSpaceOnUse" x1="2954.0911" y1="2445.2361" x2="2960.7048" y2="2979.2952">
					<stop  offset="0" style="stop-color:#FF9085"/>
					<stop  offset="1" style="stop-color:#FB6FBB"/>
				</linearGradient>
				<path style="fill:url(#SVGID_00000005979213218763535420000013638471912479871635_);" d="M3075.767,2683.683
					c13.544,6.876,30.56,0.562,38.006-14.104c7.446-14.666,2.503-32.129-11.042-39.006c-0.701-0.356-1.417-0.656-2.136-0.942
					c2.517-8.115,4.414-16.293,5.686-24.475c0.776-0.002,1.555-0.015,2.347-0.086c15.453-1.377,27.717-15.577,27.393-31.716
					c-0.323-16.14-13.113-28.107-28.565-26.729c-0.808,0.073-1.601,0.2-2.39,0.34c-1.614-7.998-3.826-15.811-6.616-23.373
					c0.711-0.416,1.418-0.846,2.109-1.33c13.22-9.262,17.448-27.543,9.441-40.832c-8.006-13.288-25.215-16.552-38.435-7.289
					c-0.677,0.475-1.315,0.988-1.945,1.507c-5.221-5.772-10.949-11.122-17.145-16.004c0.436-0.714,0.862-1.438,1.248-2.198
					c7.446-14.666,2.502-32.129-11.042-39.006c-13.544-6.877-30.561-0.563-38.006,14.103c-0.386,0.76-0.719,1.531-1.038,2.304
					c-7.598-2.122-15.296-3.588-23.038-4.398c0.048-0.815,0.086-1.632,0.07-2.459c-0.324-16.139-13.113-28.106-28.566-26.729
					c-15.453,1.377-27.717,15.578-27.393,31.716c0.017,0.844,0.087,1.668,0.171,2.487c-7.751,2.21-15.364,5.035-22.774,8.451
					c-0.352-0.72-0.718-1.435-1.136-2.131c-8.007-13.288-25.215-16.551-38.436-7.289c-13.221,9.263-17.447,27.543-9.441,40.832
					c0.41,0.681,0.86,1.318,1.316,1.946c-5.854,5.855-11.338,12.213-16.404,19.033c-0.655-0.411-1.319-0.813-2.021-1.169
					c-13.544-6.877-30.56-0.562-38.006,14.103c-7.446,14.666-2.503,32.129,11.042,39.006c0.702,0.356,1.418,0.656,2.136,0.942
					c-2.516,8.115-4.414,16.293-5.686,24.475c-0.776,0.002-1.556,0.015-2.347,0.085c-15.453,1.378-27.717,15.578-27.394,31.718
					c0.323,16.139,13.113,28.105,28.566,26.728c0.807-0.072,1.601-0.199,2.389-0.34c1.615,7.998,3.826,15.811,6.616,23.373
					c-0.711,0.416-1.418,0.845-2.109,1.33c-13.22,9.262-17.447,27.543-9.441,40.831c8.007,13.289,25.215,16.552,38.435,7.29
					c0.677-0.475,1.315-0.988,1.945-1.508c5.222,5.772,10.949,11.122,17.145,16.004c-0.436,0.714-0.862,1.438-1.248,2.198
					c-7.446,14.665-2.502,32.129,11.042,39.006c13.544,6.876,30.56,0.562,38.006-14.103c0.386-0.76,0.718-1.531,1.038-2.304
					c7.598,2.122,15.297,3.588,23.038,4.398c-0.048,0.815-0.086,1.632-0.07,2.46c0.324,16.138,13.113,28.106,28.566,26.728
					c15.453-1.377,27.717-15.578,27.393-31.717c-0.016-0.844-0.087-1.668-0.171-2.488c7.751-2.209,15.364-5.034,22.773-8.451
					c0.352,0.719,0.718,1.436,1.136,2.129c8.007,13.288,25.214,16.552,38.435,7.29s17.448-27.543,9.441-40.832
					c-0.41-0.68-0.86-1.317-1.316-1.945c5.854-5.855,11.338-12.213,16.405-19.033
					C3074.401,2682.925,3075.066,2683.327,3075.767,2683.683z M2906.926,2685.825c-49.176-24.968-67.125-88.374-40.09-141.622
					c27.035-53.248,88.816-76.173,137.992-51.205c49.176,24.968,67.125,88.374,40.09,141.622
					C3017.883,2687.868,2956.102,2710.793,2906.926,2685.825z"/>
			</g>
			<g>
				
					<linearGradient id="SVGID_00000119080879529692501130000005040142720361367682_" gradientUnits="userSpaceOnUse" x1="3251.4404" y1="3146.6477" x2="2422.9814" y2="2912.2112">
					<stop  offset="0" style="stop-color:#311944"/>
					<stop  offset="1" style="stop-color:#A03976"/>
				</linearGradient>
				<path style="fill:url(#SVGID_00000119080879529692501130000005040142720361367682_);" d="M2611.083,3086.952
					c26.532,13.47,59.864,1.102,74.45-27.626c14.586-28.728,4.902-62.938-21.63-76.408c-1.375-0.698-2.777-1.284-4.185-1.846
					c4.929-15.896,8.646-31.917,11.138-47.944c1.521-0.004,3.047-0.03,4.598-0.168c30.27-2.699,54.294-30.513,53.661-62.129
					c-0.634-31.615-25.687-55.058-55.957-52.359c-1.583,0.142-3.136,0.391-4.682,0.666c-3.162-15.667-7.494-30.972-12.96-45.785
					c1.393-0.815,2.778-1.657,4.131-2.605c25.897-18.143,34.177-53.954,18.493-79.984c-15.684-26.031-49.393-32.423-75.29-14.28
					c-1.327,0.93-2.576,1.934-3.81,2.953c-10.229-11.308-21.447-21.787-33.585-31.351c0.853-1.399,1.688-2.816,2.445-4.305
					c14.586-28.729,33.646-60.11,6.907-73.163c-61.856-30.197-88.4-4.347-102.987,24.381c-0.755,1.489-1.407,3-2.033,4.514
					c-14.884-4.156-29.964-7.029-45.129-8.615c0.095-1.597,0.168-3.197,0.137-4.818c-0.635-31.614,8.746-48.723-21.638-49.313
					c-66.258-1.289-88.614,27.471-87.979,59.084c0.033,1.652,0.171,3.268,0.335,4.873c-15.184,4.328-30.096,9.861-44.611,16.555
					c-0.69-1.41-1.405-2.812-2.225-4.173c-15.684-26.03-49.393-32.422-75.291-14.277s-34.177,53.954-18.493,79.984
					c0.803,1.334,1.684,2.581,2.577,3.811c-11.469,11.47-22.209,23.925-32.134,37.284c-1.283-0.805-2.585-1.592-3.96-2.289
					c-26.532-13.471-59.864-1.102-74.45,27.626c-14.586,28.728-4.902,62.938,21.629,76.408c1.375,0.698,2.778,1.284,4.185,1.846
					c-4.929,15.896-8.646,31.917-11.138,47.944c-1.521,0.005-3.047,0.03-4.597,0.167c-30.271,2.7-54.295,30.515-53.662,62.131
					c0.634,31.615,25.687,55.056,55.957,52.358c1.581-0.141,3.136-0.39,4.681-0.665c3.162,15.668,7.494,30.972,12.96,45.785
					c-1.392,0.815-2.778,1.656-4.131,2.604c-25.898,18.143-34.177,53.954-18.493,79.984c15.684,26.03,67.609,38.124,93.506,19.98
					c1.327-0.93-15.64-7.635-14.407-8.654c10.229,11.308,21.448,21.787,33.586,31.351c-0.852,1.399-1.689,2.817-2.444,4.305
					c-14.586,28.728-4.902,62.938,21.63,76.408c26.532,13.47,59.864,1.102,74.45-27.626c0.756-1.489,1.406-3,2.033-4.514
					c14.884,4.156,29.964,7.029,45.129,8.615c-0.094,1.597-0.168,3.197-0.136,4.818c0.634,31.614,25.687,55.056,55.957,52.358
					c30.27-2.698,54.295-30.515,53.661-62.129c-0.033-1.652-0.171-3.268-0.335-4.873c15.185-4.328,30.097-9.861,44.611-16.554
					c0.69,1.41,1.406,2.812,2.225,4.171c15.684,26.03,49.392,32.424,75.291,14.279c25.898-18.145,34.177-53.954,18.494-79.985
					c-0.803-1.332-1.684-2.579-2.578-3.809c11.468-11.469,22.209-23.924,32.134-37.284
					C2608.407,3085.467,2609.708,3086.254,2611.083,3086.952z M2280.34,3091.148c-96.331-48.909-131.49-173.114-78.531-277.42
					c52.958-104.307,173.981-149.215,270.311-100.306c96.331,48.909,131.49,173.115,78.532,277.421
					C2497.693,3095.15,2376.671,3140.058,2280.34,3091.148z"/>
				
					<linearGradient id="SVGID_00000099621326996075615020000015268708757763733161_" gradientUnits="userSpaceOnUse" x1="3249.2681" y1="3154.3201" x2="2420.8076" y2="2919.8831">
					<stop  offset="0" style="stop-color:#311944"/>
					<stop  offset="1" style="stop-color:#A03976"/>
				</linearGradient>
				<path style="fill:url(#SVGID_00000099621326996075615020000015268708757763733161_);" d="M2675.455,2932.96
					c30.27-2.699,54.294-30.515,53.661-62.13c-0.634-31.615-25.687-55.057-55.957-52.358c-1.583,0.141-3.136,0.391-4.682,0.666
					c-3.161-15.668-7.494-30.972-12.96-45.785c1.393-0.813,2.778-1.657,4.131-2.605c25.897-18.143,57.937-61.984,39.666-86.267
					c-34.678-46.088-70.566-26.139-96.463-7.996c-1.327,0.93-2.576,1.934-3.809,2.952c-10.23-11.308-21.448-21.786-33.586-31.35
					c0.853-1.399,1.688-2.816,2.445-4.304c7.938-15.636,8.639-32.874,3.396-47.529c-25.014,44.026-49.691,88.237-73.926,132.688
					c76.85,56.314,101.316,167.29,53.28,261.902c-40.706,80.175-121.622,125.193-200.631,119.552
					c-3.525,9.14-6.985,18.33-10.759,27.382c-10.241,24.565-21.876,48.624-33.526,72.652c7.327,1.381,14.686,2.469,22.065,3.241
					c-0.094,1.598-0.168,3.198-0.136,4.819c0.634,31.615,19.828,58.476,74.688,55.565c30.348-1.609,35.563-33.722,34.929-65.337
					c-0.033-1.652-0.17-3.268-0.334-4.872c15.184-4.328,30.096-9.862,44.61-16.555c0.69,1.411,1.406,2.812,2.226,4.171
					c15.684,26.031,70.093,37.091,95.991,18.946c25.898-18.145,13.476-58.62-2.207-84.651c-0.803-1.333-1.684-2.58-2.577-3.811
					c11.468-11.469,22.209-23.924,32.133-37.283c1.284,0.806,2.585,1.592,3.96,2.288c26.532,13.472,59.864,1.102,74.451-27.626
					c14.585-28.727,4.902-62.938-21.63-76.407c-1.375-0.698-2.777-1.284-4.185-1.845c4.929-15.896,8.646-31.918,11.138-47.943
					C2672.378,2933.123,2673.904,2933.097,2675.455,2932.96z"/>
				
					<linearGradient id="SVGID_00000029040906867265512480000016228546382710455212_" gradientUnits="userSpaceOnUse" x1="2464.6057" y1="2056.8994" x2="2382.97" y2="3214.6438">
					<stop  offset="0" style="stop-color:#FF9085"/>
					<stop  offset="1" style="stop-color:#FB6FBB"/>
				</linearGradient>
				<path style="fill:url(#SVGID_00000029040906867265512480000016228546382710455212_);" d="M2639.619,3090.197
					c26.531,13.47,59.864,1.102,74.45-27.627c14.586-28.728,4.903-62.937-21.63-76.408c-1.375-0.698-2.777-1.285-4.184-1.845
					c4.929-15.896,8.646-31.917,11.138-47.945c1.521-0.004,3.047-0.03,4.597-0.168c30.27-2.698,54.294-30.514,53.661-62.129
					c-0.633-31.616-25.686-55.057-55.957-52.359c-1.582,0.142-3.136,0.392-4.682,0.666c-3.162-15.668-7.494-30.972-12.959-45.784
					c1.392-0.815,2.778-1.657,4.132-2.605c25.897-18.143,34.177-53.954,18.493-79.984c-15.684-26.03-49.393-32.423-75.29-14.279
					c-1.327,0.93-2.576,1.934-3.81,2.953c-10.229-11.308-21.447-21.786-33.585-31.35c0.853-1.399,1.688-2.817,2.444-4.305
					c14.586-28.728,4.902-62.938-21.629-76.408c-26.532-13.471-59.864-1.102-74.45,27.626c-0.755,1.488-1.407,3-2.033,4.514
					c-14.884-4.156-29.964-7.029-45.128-8.615c0.094-1.598,0.168-3.197,0.136-4.818c-0.635-31.614-25.687-55.056-55.957-52.358
					c-30.27,2.698-54.295,30.515-53.661,62.128c0.033,1.653,0.171,3.268,0.335,4.873c-15.184,4.329-30.096,9.862-44.611,16.555
					c-0.69-1.41-1.406-2.812-2.225-4.173c-15.684-26.03-49.393-32.423-75.291-14.278c-25.898,18.146-34.177,53.955-18.493,79.984
					c0.803,1.333,1.684,2.581,2.577,3.811c-11.468,11.47-22.209,23.924-32.134,37.285c-1.283-0.805-2.584-1.592-3.96-2.29
					c-26.532-13.471-59.864-1.102-74.45,27.626c-14.587,28.728-4.902,62.938,21.629,76.408c1.375,0.698,2.778,1.284,4.185,1.846
					c-4.929,15.896-8.646,31.917-11.138,47.944c-1.521,0.004-3.048,0.03-4.597,0.167c-30.271,2.7-54.295,30.515-53.661,62.131
					c0.633,31.615,25.687,55.055,55.957,52.357c1.581-0.141,3.136-0.39,4.68-0.665c3.162,15.667,7.494,30.972,12.96,45.785
					c-1.392,0.814-2.778,1.656-4.131,2.605c-25.897,18.143-34.177,53.954-18.493,79.984c15.684,26.03,49.393,32.422,75.29,14.28
					c1.327-0.931,2.576-1.934,3.809-2.954c10.229,11.308,21.448,21.787,33.586,31.351c-0.853,1.399-1.689,2.817-2.445,4.305
					c-14.586,28.728-4.902,62.938,21.63,76.408c26.531,13.471,59.864,1.103,74.45-27.626c0.755-1.488,1.406-2.999,2.033-4.513
					c14.884,4.156,29.964,7.028,45.129,8.614c-0.094,1.597-0.168,3.198-0.136,4.818c0.634,31.614,25.687,55.056,55.957,52.358
					c30.27-2.698,54.295-30.515,53.661-62.129c-0.033-1.652-0.171-3.268-0.335-4.872c15.184-4.328,30.096-9.862,44.611-16.555
					c0.69,1.409,1.406,2.812,2.226,4.171c15.684,26.03,49.392,32.424,75.29,14.28c25.898-18.145,34.177-53.954,18.494-79.986
					c-0.804-1.332-1.684-2.58-2.578-3.81c11.469-11.469,22.209-23.924,32.134-37.284
					C2636.943,3088.712,2638.244,3089.499,2639.619,3090.197z M2308.877,3094.393c-96.33-48.909-131.491-173.114-78.532-277.421
					c52.959-104.306,173.98-149.214,270.311-100.305c96.331,48.909,131.49,173.114,78.532,277.421
					C2526.229,3098.395,2405.208,3143.302,2308.877,3094.393z"/>
			</g>
		</g>
		<g>
			<g>
				
					<linearGradient id="SVGID_00000081612876457212426090000013225342508261510036_" gradientUnits="userSpaceOnUse" x1="211.4321" y1="3550.1895" x2="2356.2285" y2="492.5578">
					<stop  offset="0" style="stop-color:#444B8C"/>
					<stop  offset="0.9964" style="stop-color:#26264F"/>
				</linearGradient>
				<path style="fill:url(#SVGID_00000081612876457212426090000013225342508261510036_);" d="M1786.589,3147.71
					c-206.907,114.762-551.561,16.476-794.244-116.962c-71.245-39.186-139.263-86.349-202.94-141.49
					c-513.193-444.286-572.9-1257.343-133.066-1812.357c218.154-275.336,522.656-445.065,857.437-477.979
					c41.041-4.044,76.367,27.608,78.817,70.727c2.486,43.081-28.832,81.302-69.911,85.347
					c-294.037,28.907-561.543,178.003-753.202,419.868c-386.325,487.553-333.893,1201.868,116.924,1592.163
					c26.011,22.523,52.878,44.639,80.485,63.193h-0.074c0,0,361.053,327.249,819.404,317.675
					C1786.33,3147.895,1786.479,3147.71,1786.589,3147.71z"/>
				<g>
					
						<linearGradient id="SVGID_00000174570098034079663040000007368755163173552309_" gradientUnits="userSpaceOnUse" x1="-382.536" y1="3170.4414" x2="1782.5874" y2="83.8316">
						<stop  offset="0" style="stop-color:#444B8C"/>
						<stop  offset="0.9964" style="stop-color:#26264F"/>
					</linearGradient>
					<polygon style="fill:url(#SVGID_00000174570098034079663040000007368755163173552309_);" points="1219.518,957.463 
						1474.188,679.284 1224.08,424.509 1445.327,418.978 1688.561,673.408 1434.04,946.006 					"/>
				</g>
			</g>
			<g>
				
					<linearGradient id="SVGID_00000093145957831476860260000009572292238696414124_" gradientUnits="userSpaceOnUse" x1="241.118" y1="3553.9004" x2="2385.9146" y2="496.2685">
					<stop  offset="0" style="stop-color:#AA80F9"/>
					<stop  offset="0.9964" style="stop-color:#6165D7"/>
				</linearGradient>
				<path style="fill:url(#SVGID_00000093145957831476860260000009572292238696414124_);" d="M1816.275,3151.421
					c-206.907,114.762-551.561,16.475-794.244-116.962c-71.245-39.185-139.263-86.349-202.939-141.49
					c-513.193-444.286-572.9-1257.343-133.066-1812.357c218.154-275.336,522.656-445.065,857.437-477.979
					c41.041-4.044,76.367,27.608,78.817,70.727c2.486,43.081-28.832,81.302-69.911,85.347
					c-294.037,28.907-561.543,178.003-753.202,419.868C412.841,1666.128,465.273,2380.443,916.09,2770.738
					c26.011,22.523,52.878,44.639,80.485,63.193h-0.074c0,0,361.053,327.249,819.404,317.675
					C1816.016,3151.606,1816.164,3151.421,1816.275,3151.421z"/>
				<g>
					
						<linearGradient id="SVGID_00000085963552402630780650000002262331178022135199_" gradientUnits="userSpaceOnUse" x1="-336.9728" y1="3148.3953" x2="1807.8289" y2="90.7562">
						<stop  offset="0" style="stop-color:#AA80F9"/>
						<stop  offset="0.9964" style="stop-color:#6165D7"/>
					</linearGradient>
					<polygon style="fill:url(#SVGID_00000085963552402630780650000002262331178022135199_);" points="1249.204,955.598 
						1503.874,682.995 1252.487,423.799 1467.481,418.371 1718.247,677.119 1463.726,949.717 					"/>
				</g>
			</g>
		</g>
		<g>
			
				<linearGradient id="SVGID_00000183207733445878343810000003683360449630217391_" gradientUnits="userSpaceOnUse" x1="5564.8828" y1="2106.6667" x2="5454.9175" y2="1884.7369" gradientTransform="matrix(-0.9839 -0.1785 -0.1785 0.9839 6593.1602 461.4586)">
				<stop  offset="0" style="stop-color:#AB316D"/>
				<stop  offset="1" style="stop-color:#792D3D"/>
			</linearGradient>
			<path style="fill:url(#SVGID_00000183207733445878343810000003683360449630217391_);" d="M873.057,1397.387
				c0,0,15.022-27.387,25.044-35.511c10.022-8.126,9.11-42.96,13.63-69.763c4.52-26.803-14.806,9.722-19.242,17.968
				c-4.434,8.247-21.546,59.365-46.246,71.244L873.057,1397.387z"/>
			
				<linearGradient id="SVGID_00000165939705850502811780000012264473539895042732_" gradientUnits="userSpaceOnUse" x1="5472.4771" y1="2263.2471" x2="5630.1533" y2="2905.6304" gradientTransform="matrix(-0.9839 -0.1785 -0.1785 0.9839 6593.1602 461.4586)">
				<stop  offset="0" style="stop-color:#FF9085"/>
				<stop  offset="1" style="stop-color:#FB6FBB"/>
			</linearGradient>
			<path style="fill:url(#SVGID_00000165939705850502811780000012264473539895042732_);" d="M853.472,1369.06
				c10.293,6.505,20.584,13.011,30.877,19.515c-40.412,58.622-88.915,150.034-70.235,248.863
				c18.909,100.042,72.637,146.024,65.213,223.045c-8.224,85.337-60.914,207.58-124.036,183.063
				c-75.297-29.248-117.186-292.927-59.941-444.036C737.435,1488.425,805.858,1412.939,853.472,1369.06z"/>
			
				<linearGradient id="SVGID_00000136412298945068349440000008068101752811754894_" gradientUnits="userSpaceOnUse" x1="4215.2427" y1="1470.6602" x2="4202.6431" y2="1319.4628" gradientTransform="matrix(-0.9967 0.0822 0.0822 0.9967 4992.4023 -122.9818)">
				<stop  offset="0" style="stop-color:#444B8C"/>
				<stop  offset="0.9964" style="stop-color:#26264F"/>
			</linearGradient>
			<path style="fill:url(#SVGID_00000136412298945068349440000008068101752811754894_);" d="M947.474,1665.449
				c9.876-20.912,14.196-20.916,16.455-31.869c5.149-24.961-10.876-56.02-23.713-56.09c-8.276-0.045-8.592,12.827-25.521,33.362
				c-20.739,25.154-33.844,22.306-45.852,43.971c-2.81,5.067-15.451,27.878-6.803,44.384c11.036,21.067,52.238,23.275,68.948,6.303
				C938.912,1697.46,935.308,1691.213,947.474,1665.449z"/>
			
				<linearGradient id="SVGID_00000088819017968009947120000006801796803973556363_" gradientUnits="userSpaceOnUse" x1="4170.3726" y1="1247.7515" x2="4182.4155" y2="1693.3333" gradientTransform="matrix(-0.9967 0.0822 0.0822 0.9967 4992.4023 -122.9818)">
				<stop  offset="0" style="stop-color:#AB316D"/>
				<stop  offset="1" style="stop-color:#792D3D"/>
			</linearGradient>
			<path style="fill:url(#SVGID_00000088819017968009947120000006801796803973556363_);" d="M917.296,1688.574
				c0,0,8.462,38.967,4.149,70.97c-3.9,28.924-56.375,60.356-66.351,69.225c-9.975,8.867,27.623,17.105,61.743,11.643
				c34.116-5.46,127.025-38.148,140.795-55.279c13.772-17.13-16.833-8.008-42.861-10.432c-26.028-2.424-52.031-45.184-53.422-67.348
				C959.957,1685.186,917.296,1688.574,917.296,1688.574z"/>
			<g>
				
					<linearGradient id="SVGID_00000054257129327175028870000009068619313765814455_" gradientUnits="userSpaceOnUse" x1="-1563.6536" y1="787.7179" x2="-1444.8147" y2="912.9803" gradientTransform="matrix(0.9582 -0.2859 0.2859 0.9582 2099.72 418.7449)">
					<stop  offset="0" style="stop-color:#AB316D"/>
					<stop  offset="1" style="stop-color:#792D3D"/>
				</linearGradient>
				<path style="fill:url(#SVGID_00000054257129327175028870000009068619313765814455_);" d="M929.301,1717.493
					c0,0,26.546,10.761,49.236-8.471c20.315-17.222-12.06-67.411-33.229-67.458c-7.062-0.016-17.216,5.334-23.085,12.903
					c-3.467,4.472-3.597,7.388-9.403,14.584c-5.354,6.635-7.774,7.289-8.524,10.459c-0.941,3.963,1.056,10.487,15.616,21.383
					c-7.131-1.105-13.194,0.94-15.445,5.142c-0.358,0.671-1.085,2.756-0.789,4.877
					C904.75,1718.596,914.92,1721.876,929.301,1717.493z"/>
			</g>
			
				<linearGradient id="SVGID_00000034076014672992424590000007035078997251786935_" gradientUnits="userSpaceOnUse" x1="4455.0835" y1="675.4609" x2="4381.6245" y2="557.21" gradientTransform="matrix(-0.892 0.452 0.452 0.892 5252.9028 -919.28)">
				<stop  offset="0" style="stop-color:#AB316D"/>
				<stop  offset="1" style="stop-color:#792D3D"/>
			</linearGradient>
			<path style="fill:url(#SVGID_00000034076014672992424590000007035078997251786935_);" d="M1569.925,1589.842
				c0,0,15.448-4.306,6.506-33.714c-7.011-23.051-5.161-31.368,0.963-27.938c6.124,3.431,8.737,16.945,8.737,16.945
				s17.97-20.031,23.282-43.832c5.311-23.801,13.247-5.423,16.559,5.676c3.313,11.1-5.689,48.155-12.567,55.761
				c-6.878,7.606-14.334,38.063-14.334,38.063L1569.925,1589.842z"/>
			
				<linearGradient id="SVGID_00000159456692231688095770000018242260698735061424_" gradientUnits="userSpaceOnUse" x1="-1085.95" y1="3394.7" x2="-1165.8035" y2="3131.3989" gradientTransform="matrix(0.9999 -0.0148 0.0148 0.9999 2341.6506 -6.0882)">
				<stop  offset="0" style="stop-color:#444B8C"/>
				<stop  offset="0.9964" style="stop-color:#26264F"/>
			</linearGradient>
			<path style="fill:url(#SVGID_00000159456692231688095770000018242260698735061424_);" d="M1226.353,3277.9
				c-7.693,16.897-5.196,23.992-3.072,27.084c6.227,9.072,20.329-0.067,57.927,3.298c4.41,0.397,12.829,1.291,23.224-1.475
				c8.906-2.37,19.34-7.445,18.82-9.834c-0.19-0.87-1.793-1.174-2.401-1.285c-10.461-1.92-76.126-20.034-76.126-20.034
				L1226.353,3277.9z"/>
			
				<linearGradient id="SVGID_00000034794088867531319560000012234615792548725677_" gradientUnits="userSpaceOnUse" x1="-2548.219" y1="2280.9661" x2="-2548.219" y2="1857.986" gradientTransform="matrix(0.9761 -0.2175 0.2175 0.9761 3241.1943 571.3373)">
				<stop  offset="0" style="stop-color:#AB316D"/>
				<stop  offset="1" style="stop-color:#792D3D"/>
			</linearGradient>
			<path style="fill:url(#SVGID_00000034794088867531319560000012234615792548725677_);" d="M1211.294,3244.971l11.872,29.06
				c1.821,4.458,6.059,7.477,10.869,7.699c4.88,0.225,10.144-1.325,10.629-8.867c0.662-10.312-5.57-36.201-5.57-36.201
				L1211.294,3244.971z"/>
			
				<linearGradient id="SVGID_00000163770301714897382000000014486424112611256236_" gradientUnits="userSpaceOnUse" x1="-1635.2357" y1="3287.9426" x2="-1635.2357" y2="2864.9268" gradientTransform="matrix(0.9999 -0.0148 0.0148 0.9999 2341.6506 -6.0882)">
				<stop  offset="0" style="stop-color:#AB316D"/>
				<stop  offset="1" style="stop-color:#792D3D"/>
			</linearGradient>
			<polygon style="fill:url(#SVGID_00000163770301714897382000000014486424112611256236_);" points="772.803,3208.381 
				758.323,3251.719 735.393,3248.736 739.548,3208.872 			"/>
			
				<linearGradient id="SVGID_00000081607756921318620180000000436909225030188732_" gradientUnits="userSpaceOnUse" x1="-1605.8248" y1="3303.9326" x2="-1685.677" y2="3040.6355" gradientTransform="matrix(0.9999 -0.0148 0.0148 0.9999 2341.6506 -6.0882)">
				<stop  offset="0" style="stop-color:#444B8C"/>
				<stop  offset="0.9964" style="stop-color:#26264F"/>
			</linearGradient>
			<path style="fill:url(#SVGID_00000081607756921318620180000000436909225030188732_);" d="M751.89,3275.544
				c-11.424-12.794-21.254-11.323-23.502-20.275c-1.767-7.034,2.321-15.84,8.766-19.326c9.06-4.896,20.402,2.022,22.964,3.584
				c17.406,10.619,13.249,28.125,29.577,35.198c3.287,1.423,8.47,2.884,14.033,7.805c2.361,2.09,8.212,7.265,6.982,10.981
				c-1.422,4.297-11.585,4.44-21.247,4.577c-11.595,0.165-17.392,0.251-23.065-3.07
				C758.536,3290.418,760.708,3285.418,751.89,3275.544z"/>
			
				<linearGradient id="SVGID_00000170241137507332588690000014428503072225888443_" gradientUnits="userSpaceOnUse" x1="-84.7325" y1="3232.01" x2="-123.5819" y2="4106.1226" gradientTransform="matrix(0.9823 0.187 -0.187 0.9823 1564.3835 -737.8535)">
				<stop  offset="0" style="stop-color:#444B8C"/>
				<stop  offset="0.9964" style="stop-color:#26264F"/>
			</linearGradient>
			<path style="fill:url(#SVGID_00000170241137507332588690000014428503072225888443_);" d="M783.115,2311.949
				c-10.87,86.096-11.478,161.118-8.033,222.97c3.705,66.537,9.931,78.895,7.319,124.108
				c-5.686,98.385-39.072,107.452-61.691,216.163c-24.977,120.038-7.613,221.176-0.615,259.814
				c6.119,33.777,13.706,61.463,19.641,80.794c9.605,11.382,27.141,10.281,45.588,9.398
				c23.499-108.748,47.623-210.781,71.121-319.528c46.684-161.851,93.368-323.696,140.053-485.544
				C925.369,2384.063,854.242,2348.01,783.115,2311.949z"/>
			
				<linearGradient id="SVGID_00000127009766946823025700000008731666675560130471_" gradientUnits="userSpaceOnUse" x1="-84.7325" y1="3232.01" x2="-123.5819" y2="4106.1221" gradientTransform="matrix(0.9823 0.187 -0.187 0.9823 1564.3835 -737.8535)">
				<stop  offset="0" style="stop-color:#444B8C"/>
				<stop  offset="0.9964" style="stop-color:#26264F"/>
			</linearGradient>
			<path style="opacity:0.3;fill:url(#SVGID_00000127009766946823025700000008731666675560130471_);" d="M785.323,3225.196
				c23.499-108.748,47.623-210.781,71.121-319.528c46.684-161.851,93.368-323.696,140.053-485.544
				c-71.129-36.061-142.256-72.114-213.383-108.175c-0.719,5.701-1.278,11.22-1.912,16.828
				c91.033,107.45,100.465,182.915,91.842,232.069c-10.458,59.618-47.729,84.228-54.697,171.93
				c-4.982,62.708,11.976,76.502,3.35,132.453c-11.11,72.045-48.271,107.791-69.745,147.105
				c-20.752,37.996-34.711,94.191-19.08,179.584c2.403,8.94,4.74,16.967,6.862,23.878
				C749.341,3227.177,766.876,3226.08,785.323,3225.196z"/>
			
				<linearGradient id="SVGID_00000040577424016421891600000009015507666265723535_" gradientUnits="userSpaceOnUse" x1="-778.8343" y1="2782.6943" x2="-1640.6517" y2="2743.52" gradientTransform="matrix(0.9999 -0.0148 0.0148 0.9999 2341.6506 -6.0882)">
				<stop  offset="0" style="stop-color:#444B8C"/>
				<stop  offset="0.9964" style="stop-color:#26264F"/>
			</linearGradient>
			<path style="fill:url(#SVGID_00000040577424016421891600000009015507666265723535_);" d="M908.107,2412.685
				c2.86,41.069,11.482,103.087,40.192,171.842c38.488,92.171,78.389,113.382,96.871,190.806
				c19.3,80.851-10.881,113.575-10.319,188.515c0.527,70.185,27.963,169.757,153.1,291.343c19.649-2.354,39.298-4.709,58.947-7.063
				c-17.535-60.163-41.23-154.095-55.175-272.088c-6.985-59.106-8.939-102.381-9.774-118.586
				c-5.065-98.261-23.835-265.051-84.601-565.205C1034.268,2332.392,971.188,2372.536,908.107,2412.685z"/>
			
				<linearGradient id="SVGID_00000068637042533681050670000007703001162611671173_" gradientUnits="userSpaceOnUse" x1="1159.6984" y1="1922.4657" x2="1254.7013" y2="2309.5137">
				<stop  offset="0" style="stop-color:#FF9085"/>
				<stop  offset="1" style="stop-color:#FB6FBB"/>
			</linearGradient>
			<path style="fill:url(#SVGID_00000068637042533681050670000007703001162611671173_);" d="M1634.822,1579.111
				c-47.609,94.142-80.636,166.129-110.209,220.343c-40.3,73.845-74.215,114.737-129.767,133.883
				c-60.854,20.967-123.527,26.162-167.019,83.975c-60.557,80.448-46.16,212.401-41.561,254.593
				c9.168,83.789,31.541,108.575,12.618,152.288c-25.529,58.962-93.399,81.19-137.036,95.477
				c-3.674,1.187-11.281,3.636-21.895,6.494c-3.301,0.928-6.903,1.855-10.759,2.783c-6.052,1.52-12.73,3.08-19.967,4.6
				c-4.08,0.853-8.309,1.67-12.69,2.486c-1.185,0.187-2.374,0.409-3.562,0.632c-4.265,0.741-8.682,1.484-13.208,2.151
				c-1.04,0.149-2.08,0.297-3.117,0.446c-8.61,1.263-17.626,2.301-26.903,3.08c-0.928,0.038-1.855,0.112-2.783,0.223
				c-15.437,1.187-31.581,1.596-47.87,0.779c-7.237-0.333-14.546-0.928-21.782-1.855c-20.297-2.45-40.485-7.124-59.444-14.879
				c-1.337-0.558-2.711-1.151-4.044-1.708c-20.931-9.016-40.264-21.967-56.589-39.89c-34.81-38.22-40.633-82.341-50.243-155.182
				c-5.233-39.778-5.124-72.172,18.662-258.416c18.63-145.646,23.083-161.12,36.219-181.713
				c49.982-78.407,143.494-101.971,197.151-114.735c170.396-40.485,261.606,9.203,389.699-8.09
				c84.829-11.429,95.033-64.827,229.917-205.241C1591.37,1568.424,1622.092,1572.32,1634.822,1579.111z"/>
			<g style="opacity:0.3;">
				
					<linearGradient id="SVGID_00000021121100520268689430000017403873054662783159_" gradientUnits="userSpaceOnUse" x1="1085.9681" y1="2050.3196" x2="1306.785" y2="2386.3457">
					<stop  offset="0" style="stop-color:#FF9085"/>
					<stop  offset="1" style="stop-color:#FB6FBB"/>
				</linearGradient>
				<path style="fill:url(#SVGID_00000021121100520268689430000017403873054662783159_);" d="M1524.613,1799.453
					c-40.3,73.845-74.215,114.737-129.767,133.883c-60.854,20.967-123.527,26.162-167.019,83.975
					c-60.557,80.448-46.16,212.401-41.561,254.593c9.168,83.789,31.541,108.575,12.618,152.288
					c-25.529,58.962-93.399,81.19-137.036,95.477c-3.674,1.187-11.281,3.636-21.895,6.494c-3.301,0.89-6.903,1.855-10.759,2.783
					c-6.052,1.52-12.73,3.08-19.967,4.6c-4.044,0.817-8.273,1.67-12.69,2.486c-1.185,0.187-2.374,0.409-3.562,0.632
					c-4.265,0.741-8.682,1.446-13.208,2.151c-1.04,0.149-2.08,0.297-3.117,0.446c-8.61,1.225-17.626,2.265-26.903,3.08
					c-0.928,0.038-1.855,0.112-2.783,0.223c-15.437,1.151-31.581,1.558-47.87,0.779c-7.237-0.372-14.51-1.002-21.782-1.855
					c-20.297-2.486-40.445-7.162-59.444-14.879c-1.337-0.558-2.711-1.151-4.044-1.708c-10.763-4.675-21.079-10.351-30.802-17.217
					c12.285-25.79,29.24-51.653,53.175-74.512c50.914-48.647,82.158-35.067,112.956-73.399
					c71.134-88.612-42.488-227.913,20.148-298.045c50.171-56.181,150.694,2.078,205.279-64.344
					c36.216-44.047,1.41-81.116,33.396-126.536C1257.886,1799.974,1374.662,1844.689,1524.613,1799.453z"/>
			</g>
		</g>
	</g>
</g>
</svg>
