<?xml version="1.0" encoding="utf-8"?>
<!-- Generator: Adobe Illustrator 27.5.0, SVG Export Plug-In . SVG Version: 6.00 Build 0)  -->
<svg version="1.1" xmlns="http://www.w3.org/2000/svg" xmlns:xlink="http://www.w3.org/1999/xlink" x="0px" y="0px"
	 viewBox="0 0 750 500" style="enable-background:new 0 0 750 500;" xml:space="preserve">
<g id="BACKGROUND">
	<rect style="fill:#FFF5F5;" width="750" height="500"/>
</g>
<g id="OBJECTS">
	<g>
		<path style="fill:#E3E6F7;" d="M691.383,352.022c-1.477-12.982-5.583-25.827-11.111-37.707
			c-5.481-11.779-12.44-23.031-21.812-32.029c-15.358-14.744-37.206-23.635-46.845-42.62
			c-18.203-35.858,11.841-90.007-38.951-108.302c-20.53-7.395-45.133-0.462-63.859-11.663
			c-14.206-8.497-20.971-25.034-30.196-38.778c-13.946-20.777-35.646-36.659-60.157-41.7c-25.289-5.201-46.646,3.347-68.584,14.893
			c-20.478,10.778-29.311,33.785-47.055,48.285c-11.401,9.312-26.659,1.754-40.22,3.474c-13.891,1.762-27.321,7.561-37.871,16.808
			c-27.514,24.116-29.642,63.701-48.94,93.609c-4.92,7.626-10.399,14.957-17.034,21.149c-19.811,18.487-48.122,24.934-67.343,44.046
			c-19.896,19.784-34.386,52.681-33.334,80.931c3.316,89.002,113.463,70.599,172.907,71.182
			c76.665,0.752,153.838-1.521,230.503-0.769c46.263,0.454,90.497,1.808,136.637-2.176c38.487-3.323,80.617-4.532,91.679-49.695
			C692.124,371.467,692.485,361.706,691.383,352.022z"/>
		<path style="fill:#E3E6F7;" d="M645.18,250.845c-7.588-0.247-15.77-3.476-20.354-10.084c-3.593-5.179-4.976-12.083-2.717-17.967
			c7.933-20.665,29.306-4.372,36.811,6.514C668.688,243.475,657.75,251.254,645.18,250.845z"/>
		<path style="fill:#E3E6F7;" d="M531.475,97.053c1.859,2.429,2.843,5.267,1.799,8.921c-1.509,5.281-8.692,8.593-13.828,8.045
			c-9.079-0.967-18.013-14.514-15.332-23.235c1.541-5.013,7.44-8.626,12.305-6.668c2.252,0.906,3.96,2.758,5.707,4.444
			C524.975,91.308,529,93.818,531.475,97.053z"/>
		<g>
			<path id="XMLID_10_" style="fill:#7843AB;" d="M487.702,222.273H257.243c-3.02,0-5.467-2.448-5.467-5.467V69.928
				c0-3.02,2.448-5.467,5.467-5.467h230.459c3.02,0,5.467,2.448,5.467,5.467v146.877
				C493.169,219.825,490.721,222.273,487.702,222.273z"/>
			<rect id="XMLID_935_" x="256.654" y="67.505" style="fill:#FFFFFF;" width="231.636" height="144.546"/>
			<g id="XMLID_924_">
				<g id="XMLID_930_">
					<path id="XMLID_934_" style="fill:#9DA6EB;" d="M398.902,113.739c-1.643,14.339,6.143,28.638,20.03,34.665l12.389-31.276
						L398.902,113.739z"/>
				</g>
				<path id="XMLID_938_" style="fill:#7843AB;" d="M431.224,117.082l-0.001,0.003l-12.34,31.297
					c0.086,0.037,0.195,0.087,0.281,0.123c17.1,7.255,36.857-0.72,44.112-17.821c4.66-10.984,3.04-23.056-3.252-32.211
					l-28.753,18.627L431.224,117.082z"/>
				<path id="XMLID_939_" style="fill:#110809;" d="M422.705,85.325l8.619,31.799l8.779-32.296
					C434.586,83.381,427.448,83.648,422.705,85.325z"/>
				<path id="XMLID_969_" style="fill:#FFC200;" d="M431.221,117.09l0.003-0.008l-8.57-31.778
					c3.705-1.108-14.103,2.099-21.318,19.103c-1.294,3.051-2.139,6.17-2.498,9.303l32.384,3.377L431.221,117.09z"/>
				<path id="XMLID_931_" style="fill:#110809;" d="M431.324,117.124l0.005-0.004l21.675-26.098c-2.26-1.759-4.781-3.26-7.543-4.431
					c-1.764-0.748-3.555-1.332-5.358-1.763L431.324,117.124z"/>
				<path id="XMLID_966_" style="fill:#D9E0FF;" d="M453.004,91.022l-21.676,26.098l28.699-18.644
					c6.291,9.155,7.93,21.193,3.27,32.177c-7.255,17.098-26.988,25.045-44.085,17.79c0.002,0.001,0.005,0.002,0.005,0.002
					c17.103,7.256,36.832-0.689,44.087-17.79c6.948-16.376-0.086-35.158-15.713-43.093C449.534,88.55,451.336,89.724,453.004,91.022
					z"/>
			</g>
			<g>
				
					<rect id="XMLID_907_" x="348.174" y="91.616" transform="matrix(-1 -1.224647e-16 1.224647e-16 -1 703.9173 240.2851)" style="fill:#7843AB;" width="7.569" height="57.054"/>
				
					<rect id="XMLID_925_" x="331.72" y="104.38" transform="matrix(-1 -1.224647e-16 1.224647e-16 -1 671.0094 253.0498)" style="fill:#FFC200;" width="7.569" height="44.289"/>
				
					<rect id="XMLID_926_" x="314.937" y="114.921" transform="matrix(-1 -1.224647e-16 1.224647e-16 -1 637.4437 263.5901)" style="fill:#3950C2;" width="7.569" height="33.749"/>
				
					<rect id="XMLID_927_" x="298.001" y="123.855" transform="matrix(-1 -1.224647e-16 1.224647e-16 -1 603.5713 272.5251)" style="fill:#D9E0FF;" width="7.569" height="24.814"/>
				
					<rect id="XMLID_928_" x="281.227" y="132.272" transform="matrix(-1 -1.224647e-16 1.224647e-16 -1 570.0239 280.9418)" style="fill:#D9E0FF;" width="7.569" height="16.397"/>
				<rect id="XMLID_929_" x="271.35" y="147.763" style="fill:#1E242B;" width="88.622" height="1.419"/>
				
					<rect id="XMLID_933_" x="240.896" y="117.147" transform="matrix(6.123234e-17 -1 1 6.123234e-17 154.1457 390.1158)" style="fill:#1E242B;" width="62.47" height="1.676"/>
				<line style="fill:none;stroke:#1E242B;stroke-miterlimit:10;" x1="272.969" y1="147.993" x2="355.743" y2="87.562"/>
				<polyline style="fill:none;stroke:#1E242B;stroke-miterlimit:10;" points="345.148,87.562 355.743,87.562 355.743,97.474 				
					"/>
			</g>
			<g>
				<polygon id="XMLID_932_" style="fill:none;" points="467.827,199.471 467.827,199.467 467.827,199.47 				"/>
				<polygon id="XMLID_937_" style="fill:none;" points="467.827,199.471 467.827,199.467 467.827,199.47 				"/>
				<line style="fill:none;stroke:#110809;stroke-miterlimit:10;" x1="410.224" y1="162.541" x2="471.242" y2="162.541"/>
				<line style="fill:none;stroke:#110809;stroke-miterlimit:10;" x1="410.224" y1="171.393" x2="471.242" y2="171.393"/>
				<line style="fill:none;stroke:#110809;stroke-miterlimit:10;" x1="410.224" y1="180.245" x2="471.242" y2="180.245"/>
				<line style="fill:none;stroke:#110809;stroke-miterlimit:10;" x1="410.224" y1="189.097" x2="457.615" y2="189.097"/>
			</g>
			<line style="fill:none;stroke:#110809;stroke-miterlimit:10;" x1="272.969" y1="165.344" x2="342.263" y2="165.344"/>
			<line style="fill:none;stroke:#110809;stroke-miterlimit:10;" x1="272.969" y1="173.304" x2="329.288" y2="173.304"/>
			<rect x="272.969" y="183.882" style="fill:#FFC200;" width="15.827" height="6.034"/>
			<rect x="272.969" y="196.049" style="fill:#7843AB;" width="15.827" height="6.034"/>
			<rect x="299.702" y="183.882" style="fill:#110809;" width="15.827" height="6.034"/>
			<rect x="299.702" y="196.049" style="fill:#D9E0FF;" width="15.827" height="6.034"/>
			<line style="fill:none;stroke:#110809;stroke-miterlimit:10;" x1="263.039" y1="217.296" x2="273.271" y2="217.296"/>
			<line style="fill:none;stroke:#110809;stroke-miterlimit:10;" x1="279.896" y1="217.296" x2="290.128" y2="217.296"/>
		</g>
		<g>
			<path id="XMLID_233_" style="fill:#110809;" d="M496.555,392.331c4.742,9.326-2.328,14.334-6.778,22.232
				c-0.943,1.674-1.6,4.072-0.107,5.283c1.481,1.2,3.651,0.104,5.209-0.994c7.916-5.578,15.832-11.156,23.751-16.736
				c4.541-3.202-8.171-15.871-10.59-19.099c-0.002-0.003-1.698-2.265-1.698-2.265c-2.814-3.755-7.595-4.708-10.594-2.112
				c-2.592,2.244-2.928,6.575-1.017,10.236C495.362,390.084,495.991,391.221,496.555,392.331z"/>
			<path style="fill:#8A5648;" d="M453.603,302.776c4.314-1.543,9.741-1.321,14.297-1.383c4.972-0.067,9.947,0.094,14.916-0.108
				c4.558-0.185,9.085-0.513,13.289-2.324c3.507-1.51,6.725-3.62,9.597-6.13c5.831-5.096,10.188-11.638,14.209-18.189
				c4.94-8.049,15.465-26.012,4.289-33.448c-5.848-3.891-9.665,0.363-11.697,5.839c-1.082,2.915-1.738,5.97-2.44,8.992
				c-0.967,4.166-2.101,7.528-3.99,11.44c-1.232,2.552-2.471,5.115-4.077,7.449c-1.874,2.723-4.206,5.067-6.821,7.081
				c-4.872,3.753-10.722,6.537-16.433,8.697c-3.283,1.241-6.61,2.364-9.976,3.358c-2.779,0.822-6.585,2.485-9.533,2.137
				c-0.858-0.101-1.675-0.412-2.513-0.621c-2.78-0.693-5.746-0.239-8.43,0.764c-2.683,1.003-5.133,2.532-7.563,4.05
				c-2.215,1.384,0.622,2.047,1.957,1.587c1.698-0.585,3.544-1.718,5.047-2.684c-1.581,1.015-3.213,2.081-4.211,3.673
				c-0.202,0.322-0.296,0.87,0.069,0.973c0.169,0.047,0.342-0.047,0.492-0.139c1.346-0.832,2.622-1.776,3.813-2.819
				c-1.298,1.137,1.765,2.645,2.539,2.641C451.532,303.607,452.568,303.146,453.603,302.776z"/>
			<g>
				
					<rect id="XMLID_232_" x="537.223" y="346.502" transform="matrix(-1 -1.224647e-16 1.224647e-16 -1 1077.4094 758.3676)" style="fill:#110809;" width="2.963" height="65.363"/>
				<path id="XMLID_231_" style="fill:none;stroke:#110809;stroke-width:2;stroke-miterlimit:10;" d="M564.613,425.582
					c0-9.652-17.078-13.7-25.612-13.716c-10.158-0.02-25.612,3.725-25.612,13.716"/>
				
					<line id="XMLID_230_" style="fill:none;stroke:#110809;stroke-width:2;stroke-miterlimit:10;" x1="538.714" y1="428.162" x2="538.714" y2="412.13"/>
				<path id="XMLID_229_" style="fill:#110809;" d="M509.198,427.91c0,2.315,1.876,4.191,4.191,4.191
					c2.315,0,4.191-1.876,4.191-4.191c0-2.315-1.876-4.191-4.191-4.191C511.075,423.719,509.198,425.595,509.198,427.91z"/>
				<path id="XMLID_228_" style="fill:#110809;" d="M534.598,427.91c0,2.315,1.876,4.191,4.191,4.191
					c2.315,0,4.191-1.876,4.191-4.191c0-2.315-1.876-4.191-4.191-4.191C536.475,423.719,534.598,425.595,534.598,427.91z"/>
				<path id="XMLID_227_" style="fill:#110809;" d="M559.999,427.91c0,2.315,1.876,4.191,4.191,4.191
					c2.315,0,4.191-1.876,4.191-4.191c0-2.315-1.876-4.191-4.191-4.191C561.875,423.719,559.999,425.595,559.999,427.91z"/>
				<path id="XMLID_226_" style="fill:#110809;" d="M541.583,322.868v-48.091c0-8.323,6.747-15.071,15.071-15.071h16.595
					c8.323,0,15.071,6.747,15.071,15.071v53.764c0,11.875-9.716,21.59-21.59,21.59h-24.856h-29.246c-1.403,0-2.54-1.137-2.54-2.54
					l0,0c0-1.403,1.137-2.54,2.54-2.54h6.773C531.651,345.051,541.583,335.12,541.583,322.868z"/>
			</g>
			<path style="fill:#110809;" d="M470.805,432.831h8.488c1.534-0.169,2.945-0.341,4.06-0.363c5.64-0.111,11.281-0.223,16.922-0.334
				c1.501-0.023,2.738-1.51,2.738-3.289l-0.001-19.143l0.017-2.831c0.029-4.692-3.204-8.342-7.163-8.087
				c-3.421,0.22-6.307,3.468-6.998,7.539c-0.228,1.344-0.414,2.63-0.636,3.855c-0.647,3.578-1.597,6.646-4.786,9.168
				c-4.687,3.707-10.892,3.167-15.807,6.412c-0.443,0.293-0.886,0.629-1.175,1.125c-0.563,0.967-0.376,2.31,0.181,3.23
				C467.557,431.619,469.049,432.427,470.805,432.831z"/>
			<path style="fill:#7A483A;" d="M519.595,289.673l-0.004-0.001c0.019-0.066,0.03-0.135,0.047-0.202L519.595,289.673z"/>
			<polygon style="fill:#7A483A;" points="530.926,235.802 530.705,236.851 530.705,236.851 			"/>
			<path style="fill:#FFC200;" d="M514.285,235.548c0.895-2.294,2.071-4.441,3.7-6.327c4.499-5.209,11.618-9.073,18.615-8.914
				c-0.644,6.344-1.509,12.667-2.591,18.951c-1.391,8.075-2.303,16.066-6.38,23.378c-5.99-2.923-13.044-3.463-18.485-7.313
				C510.342,249.845,512.209,240.867,514.285,235.548z"/>
			<path style="fill:#7843AB;" d="M465.403,328.521c1.311-3.254,3.821-5.989,6.726-7.996c3.347-2.312,7.21-3.757,11.082-5.006
				c14.157-4.568,28.421-5.485,43.12-6.994c1.919-0.197,3.838-0.394,5.759-0.571c0.159-0.011,0.314-0.038,0.476-0.041
				c7.106-0.142,13.33,7.268,13.902,16.551c0.571,9.283-4.726,16.924-11.832,17.067c-0.161,0.003-0.319-0.017-0.479-0.014
				c-9.998,0.191-20.065-0.697-30.053-0.244c-7.892,0.358-16.051,3.59-23.678,5.577c-4.446,1.158-9.861,1.673-12.985-1.695
				c-1.502-1.619-2.144-3.846-2.557-6.016c-0.573-3.005-0.796-6.146,0.008-9.098C465.032,329.522,465.204,329.016,465.403,328.521z"
				/>
			<path style="fill:#7843AB;" d="M472.842,319.757c3.734-2.324,8.597-2.821,12.655-1.112c10.622,4.473,11.81,24.084,13.86,33.755
				c1.512,7.129,2.834,14.298,3.964,21.497c0.319,2.031,3.911,20.151,2.716,20.75c-1.119,0.561-19.951,2.308-19.791,2.723
				c-3.355-8.719-6.709-17.439-10.064-26.158c-5.163-13.42-20.025-38.669-4.434-50.696
				C472.1,320.245,472.465,319.992,472.842,319.757z"/>
			<path style="fill:#7843AB;" d="M490.865,334.16c4.632-7.508,17.346-11.864,24.865-15.538c3.95-1.931,7.967-3.747,11.848-5.817
				c5.643-3.009,9.842-6.499,14.489-11.03c3.5-3.413,7.255-6.731,11.783-8.572s10.01-1.983,14.064,0.749
				c5.455,3.675,6.731,11.062,7.136,17.627c0.688,11.139-0.288,25.384-12.724,29.539c-5.55,1.854-11.099,3.708-16.649,5.563
				c-11.374,3.8-22.747,7.6-34.121,11.4c-0.117,0.05-0.224,0.107-0.346,0.152c-0.292,0.106-0.594,0.194-0.913,0.268
				c-4.624,1.072-10.756-1.208-15.799-6.138C488.407,346.408,487.372,339.822,490.865,334.16z"/>
			<path style="fill:#FFC200;" d="M521.949,228.264c9.216-11.354,28.851-6.821,37.321,4.288c4.543,5.958,3.543,7.932,5.343,15.206
				c6.386,25.812,9.692,38.641,10.457,56.936c0.029,0.696,0.051,1.428-0.264,2.049c-0.642,1.266-2.313,1.51-3.73,1.596
				c-6.345,0.386-12.405,0.094-18.733,0.094c-4.642-0.243-9.292-0.457-13.912-0.997c-3.06-0.358-8.68-0.032-9.52-3.754
				c-2.463-10.92-4.927-21.841-7.39-32.761c-1.699-7.533-3.401-15.083-4.308-22.751c-0.565-4.78-0.64-10.209,1.441-14.659
				C519.532,231.635,520.644,229.871,521.949,228.264z"/>
			<path id="XMLID_223_" style="fill:#9E6555;" d="M531.393,234.327L531.393,234.327c4.583-0.827,7.545-5.316,6.504-9.854
				l-4.022-18.814l-14.831,2.678l2.811,19.032C522.466,231.985,526.81,235.154,531.393,234.327z"/>
			<path id="XMLID_222_" style="fill:#9E6555;" d="M524.883,218.697c1.716,0.272,3.47-0.11,5.001-1.473
				c1.469-1.308,2.565-2.973,3.643-4.617c2.613-3.984,5.33-8.332,5.074-13.089c-0.12-2.239-1.197-4.283-2.729-5.883
				c-0.801-0.837-1.444-1.515-2.62-1.673c-1.307-0.175-2.636,0.088-3.938,0.188c-1.815,0.138-3.651-0.022-5.415-0.471
				c-1.133-0.289-2.381-0.686-3.419-0.147c-1.085,0.564-1.459,1.905-1.725,3.1c-0.585,2.628-1.402,5.264-1.817,7.909
				c-0.439,2.797-0.02,5.367-0.02,8.14C517.56,214.824,520.682,218.031,524.883,218.697z"/>
			<path style="fill:#110809;" d="M538.014,205.376c0.955-1.424,2.045-2.764,2.728-4.413c0.418-1.009,0.7-2.107,0.559-3.189
				c-0.616-4.731-6.011-8.492-10.284-9.275c-1.894-0.347-3.837-0.388-5.721-0.786c-1.393-0.294-2.77-0.786-4.193-0.745
				c-1.811,0.051-3.572,1.029-4.573,2.54c-0.63,0.951-0.966,2.132-0.744,3.251c0.221,1.119,1.061,2.137,2.17,2.406
				c0.922,0.223,1.878-0.068,2.804-0.275c3.387-0.756,5.903,0.421,9.121,1.365c1.696,0.497,3.346,1.409,4.141,3.058
				c1.666,3.452-2.742,7.348-0.799,10.505C535.64,213.741,537.028,206.844,538.014,205.376z"/>
			<path style="fill:#7843AB;" d="M491.264,334.628c-5.085,9.539-4.179,20.517-4.728,30.919
				c-0.595,11.269-2.808,22.457-2.212,33.777c0.466,8.849,7.748,16.422,17.236,13.464c3.231-1.007,5.701-3.731,7.178-6.777
				c1.477-3.045,2.095-6.423,2.698-9.754c3.725-20.571,5.4-41.539,7.176-62.4C519.818,318.317,495.86,326.006,491.264,334.628z"/>
			<path style="fill:#EDC4AC;" d="M267.076,276.924l0.705,9.941l-17.061-4.23l1.128-9.659l6.037,1.838
				c0.287,0.087,0.597,0.055,0.859-0.09l3.776-2.087c0.747-0.413,1.632-0.498,2.444-0.235"/>
			<g>
				<rect id="XMLID_696_" x="173.767" y="345.954" style="fill:#110809;" width="2.963" height="67.056"/>
				<path id="XMLID_695_" style="fill:none;stroke:#110809;stroke-width:2;stroke-miterlimit:10;" d="M149.341,426.726
					c0-9.652,17.078-13.7,25.612-13.716c10.158-0.02,25.612,3.725,25.612,13.716"/>
				
					<line id="XMLID_694_" style="fill:none;stroke:#110809;stroke-width:2;stroke-miterlimit:10;" x1="175.24" y1="429.306" x2="175.24" y2="413.274"/>
				<path id="XMLID_693_" style="fill:#110809;" d="M204.755,429.054c0,2.315-1.876,4.191-4.191,4.191
					c-2.315,0-4.191-1.876-4.191-4.191c0-2.315,1.876-4.191,4.191-4.191C202.879,424.863,204.755,426.739,204.755,429.054z"/>
				<path id="XMLID_692_" style="fill:#110809;" d="M179.355,429.054c0,2.315-1.876,4.191-4.191,4.191
					c-2.315,0-4.191-1.876-4.191-4.191c0-2.315,1.876-4.191,4.191-4.191C177.479,424.863,179.355,426.739,179.355,429.054z"/>
				<path id="XMLID_691_" style="fill:#110809;" d="M153.955,429.054c0,2.315-1.876,4.191-4.191,4.191
					c-2.315,0-4.191-1.876-4.191-4.191c0-2.315,1.876-4.191,4.191-4.191C152.079,424.863,153.955,426.739,153.955,429.054z"/>
				<path id="XMLID_690_" style="fill:#110809;" d="M172.371,327.397v-48.091c0-8.323-6.747-15.071-15.071-15.071h-16.595
					c-8.323,0-15.071,6.747-15.071,15.071v53.764c0,11.875,9.716,21.59,21.59,21.59h24.856h29.246c1.403,0,2.54-1.137,2.54-2.54l0,0
					c0-1.403-1.137-2.54-2.54-2.54h-6.773C182.302,349.58,172.371,339.649,172.371,327.397z"/>
			</g>
			<path id="XMLID_697_" style="fill:#110809;" d="M276.512,416.174c0.401,0.719,0.819,1.427,1.292,2.1
				c1.504,2.136,4.788,4.022,7.484,3.666c2.903-0.383,5.746-1.412,8.67-1.27c1.077,0.052,2.211,0.298,2.982,1.05
				c3.378,3.292-4.674,6.237-6.891,6.901c-5.04,1.511-10.081,3.021-15.121,4.532c-0.946,0.283-1.935,0.57-2.906,0.392
				c-3.909-0.714-5.083-5.798-6.267-8.861c-0.841-2.178-2.268-4.061-3.161-6.21c-0.67-1.611-1.735-5.733-0.245-7.145
				c0.361-0.342,0.834-0.534,1.263-0.787c0.849-0.5,1.537-1.247,2.41-1.704c2.475-1.295,5.594,0.174,7.395,2.309
				C274.689,412.655,275.55,414.447,276.512,416.174z"/>
			<g>
				<path style="fill:#E6AC8E;" d="M192.667,294.8l0.004-0.001c-0.019-0.066-0.03-0.135-0.047-0.202L192.667,294.8z"/>
				<polygon style="fill:#E6AC8E;" points="181.335,240.93 181.556,241.978 181.556,241.978 				"/>
				<path style="fill:#E6AC8E;" d="M192.485,294.003c0.037,0.202,0.088,0.398,0.139,0.594l-0.16-0.763
					C192.473,293.891,192.475,293.947,192.485,294.003z"/>
				<path style="fill:#E6AC8E;" d="M208.353,291.676l-15.682,3.123c1.123,3.913,5.05,6.415,9.142,5.676
					C205.999,299.718,208.826,295.842,208.353,291.676z"/>
			</g>
			<path style="fill:#FFC200;" d="M253.086,333.827c-0.136-0.928-0.669-1.782-0.716-2.73c-0.906-18.135-47.543-19.757-59.779-20.61
				c-4.136-0.288-8.4-0.337-12.295,1.084c-7.057,2.573-14.738,11.861-14.521,19.644c0.21,7.55,5.362,15.394,13.504,15.642
				c0.18,0.005,0.357-0.013,0.536-0.008c12.149,0.066,24.298,0.132,36.447,0.198c5.773,0.031,11.526,0.614,17.298,0.667
				c4.539,0.041,10.214,0.871,14.24-1.72C251.92,343.341,253.764,338.444,253.086,333.827z"/>
			
				<linearGradient id="XMLID_00000049203358022379517480000008020083794187504816_" gradientUnits="userSpaceOnUse" x1="139.4032" y1="365.343" x2="176.1095" y2="305.1447">
				<stop  offset="5.400000e-07" style="stop-color:#D9AD1C"/>
				<stop  offset="1" style="stop-color:#FFC445"/>
			</linearGradient>
			<path id="XMLID_666_" style="fill:url(#XMLID_00000049203358022379517480000008020083794187504816_);" d="M198.692,329.477
				c11.731,6.377-9.902,17.343-21.173,17.378l-19.589,0.031c-11.344,0-20.14-5.685-20.496-16.875v-33.848l43.431,0.106
				C180.865,296.268,185.948,322.549,198.692,329.477z"/>
			<path style="fill:#FFC200;" d="M241.137,334.739c-9.117-6.078-45.913-15.005-50.926-16.978
				c-9.93-3.909-20.875-5.542-31.487-4.142c-8.999,1.188-18.436,2.708-20.67,12.862c-2.001,9.094,3.75,18.089,12.844,20.089
				c0.206,0.046,0.412,0.066,0.616,0.111l84.516,16.689c0.187,0.05,0.368,0.111,0.558,0.153c0.452,0.099,0.903,0.173,1.362,0.225
				c6.636,0.754,11.979-3.108,13.445-9.775C253.001,346.681,248.831,339.869,241.137,334.739z"/>
			<path style="fill:#7843AB;" d="M209.176,254.485c-2.332-3.384-4.354-6.98-6.435-10.522c-2.397-4.081-4.973-9.279-8.49-12.463
				c-1.01-0.915-2.03-1.831-3.183-2.557c-3.366-2.118-12.287-5.102-14.148,0.236c-0.508,1.457-0.381,3.055-0.129,4.577
				c1.196,7.245,4.99,13.767,8.878,19.996c0.144,0.231,0.288,0.462,0.431,0.693c3.765,6.068,7.399,12.379,12.516,17.437
				c4.862,4.805,13.037,10.188,19.432,4.737c1.931-1.646,2.9-4.347,2.456-6.845c-0.893-5.022-5.911-8.275-8.925-12.04
				C210.737,256.68,209.94,255.594,209.176,254.485z"/>
			<path style="fill:#FFC200;" d="M274.284,409.823c1.292-5.667-2.5-11.514-4.825-16.536c-2.816-6.079-5.631-12.158-8.447-18.237
				c-3.424-7.392-6.444-15.195-10.351-22.348c-0.111-0.204-3.497-6.652-3.622-6.852c-3.655-5.886-18.664-9.108-24.931-6.022
				c-6.267,3.086-5.955,9.098-2.3,14.985c0.141,0.228,2.375,6.551,2.375,6.551c4.875,7.47,9.75,14.939,14.625,22.409
				c3.981,6.099,7.961,12.198,11.942,18.297c3.882,5.948,5.584,13.102,13.523,14.848c4.06,0.893,8.79-0.61,10.87-4.21
				C273.693,411.755,274.063,410.792,274.284,409.823z"/>
			<path style="fill:#7843AB;" d="M194.779,234.909c-1.288-8.38-9.431-9.438-16.744-9.673c-6.994-0.225-14.076,0.096-20.916,2.769
				c-7.519,2.938-14.539,8.586-18.242,15.822c-3.89,7.601-0.442,17.077-0.371,24.984c0.136,15.143-0.175,30.333-0.928,45.545
				c7.475-0.341,14.936-0.4,22.42-0.786c6.013-0.31,12.046-0.576,18-1.525c2.18-0.348,8.025-0.641,9.52-2.393
				c0.733-0.859,0.404-3.241,0.49-4.306c0.14-1.734,0.312-3.466,0.508-5.195c0.817-7.231,2.062-14.403,3.266-21.577
				c2.383-14.2,4.679-28.65,3.077-43.073C194.834,235.299,194.808,235.102,194.779,234.909z"/>
			<path id="XMLID_654_" style="fill:#E0AC9B;" d="M173.902,235.927L173.902,235.927c-4.563-0.931-7.423-5.484-6.28-9.999
				l4.446-18.718l14.767,3.012l-3.24,18.964C182.88,233.787,178.465,236.857,173.902,235.927z"/>
			
				<linearGradient id="SVGID_1_" gradientUnits="userSpaceOnUse" x1="176.0238" y1="213.1737" x2="179.5485" y2="230.5623" gradientTransform="matrix(0.9997 0.0226 -0.0226 0.9997 5.9264 -9.6639)">
				<stop  offset="4.000000e-07" style="stop-color:#BA7461"/>
				<stop  offset="1" style="stop-color:#E0AC9B"/>
			</linearGradient>
			<polygon style="fill:url(#SVGID_1_);" points="170.489,214.116 185.902,213.182 184.36,224.691 175.356,225.771 			"/>
			<path id="XMLID_199_" style="fill:#E0AC9B;" d="M175.515,220.232c-3.924-1.181-6.778-4.591-7.616-8.603l-1.481-7.087
				c-0.942-4.51,1.95-8.93,6.46-9.872l0,0c3.831-0.8,9.243-3.288,12.323,0.179c1.136,1.279,1.775,2.92,2.275,4.556
				c1.208,3.953,2.671,9.924,1.308,13.955C187.025,218.562,181.34,221.986,175.515,220.232z"/>
			<path id="XMLID_198_" style="fill:#110809;" d="M188.28,195.79c-0.382,0.249-0.792,0.461-1.206,0.645
				c-3.949,1.751-8.597,1.369-12.528,3.16c-1.714,0.781-3.246,2.079-3.645,3.995c-0.605,2.909-0.208,5.925-0.41,8.889
				c-0.087,1.281-0.66,2.899-1.944,2.884c-0.806-0.009-1.417-0.706-1.877-1.368c-2.676-3.85-4.044-8.592-3.832-13.275
				c0.165-3.641,0.458-6.615,3.724-8.884c1.962-1.363,4.3-2.067,6.616-2.654c0.438-0.111,0.906-0.217,1.332-0.066
				c0.425,0.151,0.75,0.669,0.532,1.064c2.764-1.275,5.746-2.581,8.744-2.056c0.772,0.135,1.669,0.578,1.677,1.361
				c0.006,0.571-0.478,1.012-0.921,1.373c0.866-0.335,1.749-0.673,2.676-0.725c0.927-0.052,1.921,0.23,2.509,0.948
				c0.733,0.894,0.646,2.267,0.038,3.25C189.396,194.928,188.872,195.404,188.28,195.79z"/>
			<g id="XMLID_637_">
				<path id="XMLID_195_" style="fill:#7843AB;" d="M130.919,293.95c5.33,0,10.672-0.08,15.998,0.008
					c-0.409-7.901,2.466-16.852,4.434-24.45c2.165-8.363,4.727-16.616,7.094-24.923c0.668-2.344,1.327-4.758,1.102-7.185
					c-0.239-2.567-2.671-7.138-5.678-7.082c-1.106,0.02-2.147,0.505-3.114,1.042c-6.843,3.795-11.686,10.551-14.509,17.849
					c-2.822,7.298-3.807,15.167-4.437,22.967C131.672,273.865,130.558,293.95,130.919,293.95z"/>
			</g>
			<path style="fill:#E0AC9B;" d="M195.145,294.567l-41.249-6.943c-3.224,0.242-6.438,0.547-9.631,0.999
				c-1.448,4.307-3.258,8.475-4.975,12.682l55.675-0.022c0.348,0,0.635-0.273,0.654-0.621l0.268-5.17
				C195.91,295.04,195.591,294.642,195.145,294.567z"/>
			<g id="XMLID_627_">
				<path id="XMLID_633_" style="fill:#E0AC9B;" d="M212.017,291.793c-3.391-0.627-4.719,0.337-8.129,1.584
					c-1.288,0.471-3.106-0.947-1.857-1.526c3.448-1.597,7.759-3.207,11.298-1.406C214.148,290.861,213.267,292.023,212.017,291.793z
					"/>
				<path id="XMLID_632_" style="fill:#E0AC9B;" d="M192.993,295.9c1.887-1.839,3.88-2.469,5.979-3.141
					c2.742-0.878,5.471-1.454,10.447-0.337c1.723,0.387-0.966,2.85-2.075,4.555c-1.156,1.776-3.337,4.776-4.636,4.622
					c-3.117-0.37-3.015-0.733-6.648-0.345C192.126,301.675,189.307,299.492,192.993,295.9z"/>
				<path id="XMLID_631_" style="fill:#E0AC9B;" d="M211.42,304.945c-2.73-3.256-6.316-5.111-10.17-5.718
					c-1.812-0.286-1.659,1.788,0.038,2.052c3.096,0.482,5.967,1.871,8.335,4.339C210.569,306.605,212.305,306.001,211.42,304.945z"
					/>
				<path id="XMLID_630_" style="fill:#E0AC9B;" d="M218.529,303.23c-5.149-6.801-10.182-9.266-17.911-8.293
					c-1.358,0.171-0.945,2.189,0.408,2.093c6.322-0.451,11.677,1.168,15.337,6.291C217.16,304.436,219.352,304.317,218.529,303.23z"
					/>
				<path id="XMLID_629_" style="fill:#E0AC9B;" d="M214.588,304.655c-2.26-2.57-4.796-5.268-7.847-6.909
					c-2.779-1.495-5.651-1.393-8.7-1.083c-1.363,0.139-0.864,2.214,0.483,2.077c3.185-0.324,5.878-0.147,8.576,1.743
					c2.234,1.565,3.684,2.554,5.477,4.593C213.483,306.106,215.494,305.685,214.588,304.655z"/>
				<path id="XMLID_628_" style="fill:#E0AC9B;" d="M209.419,292.422c-1.286-0.458-2.414,1.362-1.116,1.824
					c4.299,1.531,6.158,2.098,9.119,5.579c0.884,1.04,2.588,0.463,1.698-0.585C215.923,295.482,214.071,294.079,209.419,292.422z"/>
			</g>
			<path style="fill:#7843AB;" d="M180.865,302.659c0.094-0.296,0.732-1.967,0.829-2.262c0.504-2.607,2.192-8.781,2.656-11.405
				l-43.386-3.545l-0.01,0.069c-0.605-0.158-1.235-0.256-1.889-0.268c-4.433-0.078-8.09,3.451-8.169,7.884
				c-0.079,4.433,3.451,8.09,7.884,8.169c0.012,0,0.023-0.001,0.035-0.001l-0.001,0.004L180.865,302.659z"/>
			<path style="fill:#8A5648;" d="M554.9,291.111c-0.626,1.384-1.296,2.749-2.009,4.09c-1.079,2.028-2.514,4.198-4.767,4.65
				c-11.106,2.224-22.698,2.329-34.083,1.601c-0.671-0.043-1.491-0.199-1.697-0.839c-0.116-0.358,0.015-0.744,0.153-1.094
				c1.952-4.942,5.067-8.256,9.719-10.521c1.132-0.551,16.01-5.924,16.051-3.764c-0.199-10.685-0.377-21.548,2.491-31.843
				c0.876-3.145,2.084-6.299,4.304-8.693c2.22-2.394,5.64-3.896,8.803-3.089c2.904,0.741,5.083,3.274,6.176,6.064
				c2.5,6.385,1.561,15.268,0.792,21.938C559.977,277.026,557.974,284.309,554.9,291.111z"/>
			<path style="fill:#7843AB;" d="M253.013,270.844c-5.918-0.306-12.979-1.965-18.468-2.92c-3.672-0.638-7.308-1.551-10.987-2.132
				c-2.949-0.465-5.6-1.992-8.665-2.02c-2.61-0.024-5.256,0.836-7.22,2.556c-1.968,1.724-6.42,7.587-3.546,10.1
				c3.182,2.782,7.54,3.688,11.689,4.494c6.396,1.243,12.781,1.43,19.283,1.814c5.516,0.326,11.046,0.591,16.573,0.629
				C252.234,279.201,252.787,275.037,253.013,270.844z"/>
			<g>
				<path style="fill:#007772;" d="M346.752,236.107c-1.517-1.226-3.24-2.381-5.187-2.491c-2.44-0.138-4.66,1.394-6.39,3.12
					c-2.572,2.566-4.549,5.724-5.734,9.158c-0.705,2.042-1.076,4.475,0.19,6.225c0.912,1.26,2.55,1.882,4.103,1.775
					c1.552-0.107,3.008-0.87,4.163-1.912c1.278-1.153,2.216-2.628,3.378-3.898c1.161-1.27,2.675-2.381,4.395-2.432
					c3.12-0.093,4.431,3.118,6.792,4.215c0.347,0.161,0.72,0.257,1.093,0.337c0.555,0.12,1.117,0.209,1.682,0.267
					c0.803,0.082,1.433-0.696,1.222-1.475C354.922,243.3,351.404,239.865,346.752,236.107z"/>
				<path style="fill:#007772;" d="M372.027,233.585c0.782-0.349,1.588-0.646,2.42-0.877c3.636-1.01,8.48-0.599,11.161,2.38
					c2.362,2.625,2.99,7.377,3.11,10.786c0.088,2.499-0.117,5.008-0.608,7.461c-0.233,1.165-0.555,2.363-1.335,3.259
					c-2.496,2.867-6.228,1.102-7.69-1.624c-0.557-1.038-2.58-9.787-3.624-9.698c-3.69,0.315-7.382,0.595-11.077,0.839
					c-1.324,0.087-6.001,1.311-7.135,0.427c-1.421-1.109,2.515-3.579,3.378-4.349C364.168,239.03,367.704,235.515,372.027,233.585z"
					/>
				<path style="fill:#007772;" d="M358.93,221.823c2.666-5.205,6.822-9.467,10.917-13.642c1.12-1.142,2.398-2.358,3.995-2.438
					c1.9-0.095,3.544,1.571,4.011,3.415c0.467,1.845,0.015,3.794-0.593,5.597c-2.721,8.078-8.383,13.049-14.412,18.657
					c-1.662,1.546-3.381,3.177-4.144,5.315c-0.084,0.235-0.244,0.529-0.487,0.473c-0.16-0.037-0.24-0.213-0.295-0.368
					C355.856,232.983,356.077,227.391,358.93,221.823z"/>
				<path style="fill:none;stroke:#007772;stroke-miterlimit:10;" d="M359.849,231.861c-4.715,19.241-6.583,39.177-5.525,58.959"/>
				<path style="fill:#FFC200;" d="M366.337,301.973h-18.893c-3.254-8.549-7.125-17.132-5.988-25.758
					c10.004-1.924,20.009-1.924,30.013,0C372.324,284.01,368.942,292.577,366.337,301.973z"/>
				<path style="fill:#007772;" d="M357.572,258.174c1.554-1.665,3.629-2.763,5.227-4.386c0.965-0.98,1.751-2.146,2.844-2.982
					c1.092-0.836,2.65-1.285,3.845-0.605c0.768,0.437,1.246,1.262,1.487,2.112c0.627,2.214-0.184,4.648-1.623,6.445
					c-1.438,1.797-3.432,3.056-5.45,4.164c-2.017,1.108-4.112,2.109-5.921,3.53c-0.673,0.529-1.944,1.797-2.899,1.622
					c-1.695-0.312-0.497-0.724-0.419-1.952C354.844,263.247,355.545,260.346,357.572,258.174z"/>
			</g>
			<path style="fill:#FFC200;" d="M538.935,244.663c-0.073,0.362-0.142,0.726-0.207,1.09c-0.381,2.133-4.029,13.899-2.883,15.204
				c1.956,2.226,5.03,3.028,7.912,3.717c6.676,1.597,13.352,3.195,20.027,4.792c0.403,0.096-0.266-10.65-0.282-11.797
				c-0.12-8.708,0.819-17.389-4.232-25.118c-1.732-2.65-4.319-4.732-7.278-5.857c-2.402-0.913-5.471-1.05-7.197,0.855
				c-0.688,0.759-1.064,1.743-1.419,2.704C541.626,234.996,539.925,239.747,538.935,244.663z"/>
			<g>
				<g>
					<polygon id="XMLID_9_" style="fill:#343C40;" points="107.272,436.714 109.406,436.714 126.855,302.253 124.721,302.253 					
						"/>
					<polygon id="XMLID_8_" style="fill:#343C40;" points="126.582,436.714 128.716,436.714 146.165,302.253 144.031,302.253 					
						"/>
				</g>
				<polygon id="XMLID_597_" style="fill:#343C40;" points="638.237,436.714 636.103,436.714 618.654,302.253 620.788,302.253 				
					"/>
				<polygon id="XMLID_173_" style="fill:#343C40;" points="618.927,436.714 616.793,436.714 599.344,302.253 601.478,302.253 				
					"/>
				<rect id="XMLID_599_" x="94" y="301.154" style="fill:#110809;" width="556.944" height="5.712"/>
				<rect id="XMLID_167_" x="123.934" y="306.418" style="fill:#343C40;" width="497.076" height="2.238"/>
			</g>
			<g id="XMLID_581_">
				<path id="XMLID_587_" style="fill:#D9E0FF;" d="M491.886,301.973h61.451l0,0c0-1.186-0.962-2.148-2.148-2.148h-59.303V301.973z"
					/>
				<path id="XMLID_586_" style="fill:#FFF5F5;" d="M481.328,299.825h61.406l-10.951-32.432c-0.376-1.114-1.494-1.874-2.759-1.874
					h-55.353c-1.949,0-3.339,1.743-2.759,3.46L481.328,299.825z"/>
				
					<rect id="XMLID_585_" x="481.328" y="299.825" transform="matrix(-1 -1.224647e-16 1.224647e-16 -1 1024.3567 601.7974)" style="fill:#A3B4FF;" width="61.701" height="2.148"/>
				<path id="XMLID_582_" style="fill:#110809;" d="M503.308,282.272c0.197,1.309,1.489,2.086,2.871,1.97
					c1.385-0.116,2.585-1.113,2.499-2.456c-0.088-1.371-1.367-2.538-2.86-2.524c-0.093,0.001-0.17,0.025-0.233,0.063
					c-0.071-0.02-0.151-0.024-0.241-0.002C503.972,279.667,503.114,280.985,503.308,282.272z M505.578,280.11
					c0.044-0.011,0.082-0.028,0.116-0.047c0.03,0.007,0.062,0.013,0.096,0.014c0.718,0.035,1.397,0.345,1.734,0.932
					c0.809,1.409-0.327,2.379-1.526,2.429C503.761,283.534,503.589,280.608,505.578,280.11z"/>
			</g>
			<g id="XMLID_1_">
				<path id="XMLID_7_" style="fill:#110809;" d="M276.508,301.309h-61.451l0,0c0-1.186,0.962-2.148,2.148-2.148h59.303V301.309z"/>
				<path id="XMLID_6_" style="fill:#110809;" d="M287.065,299.161h-61.406l10.951-32.432c0.376-1.114,1.494-1.873,2.759-1.873
					h55.352c1.949,0,3.339,1.743,2.759,3.46L287.065,299.161z"/>
				<rect id="XMLID_5_" x="225.365" y="299.161" style="fill:#494949;" width="61.7" height="2.148"/>
				<path id="XMLID_2_" style="fill:#FFF5F5;" d="M263.05,278.66c-0.09-0.023-0.17-0.018-0.241,0.002
					c-0.063-0.037-0.139-0.062-0.233-0.063c-1.493-0.014-2.772,1.153-2.86,2.524c-0.086,1.343,1.113,2.339,2.499,2.456
					c1.382,0.116,2.673-0.661,2.871-1.97C265.28,280.322,264.421,279.004,263.05,278.66z M262.394,282.775
					c-1.198-0.051-2.334-1.02-1.525-2.429c0.337-0.586,1.016-0.897,1.734-0.932c0.034-0.002,0.066-0.007,0.096-0.014
					c0.034,0.019,0.072,0.035,0.116,0.047C264.805,279.945,264.633,282.87,262.394,282.775z"/>
			</g>
			<path style="fill:#FFF5F5;" d="M534.445,207.58c-0.917-0.366-1.873-0.652-2.81-0.948c-0.539-0.17-1.072-0.358-1.598-0.565
				c-0.263-0.104-0.524-0.213-0.784-0.323c-0.165-0.069-0.335-0.121-0.507-0.17c-0.601-0.612-1.221-1.205-1.881-1.749
				c-1.4-1.153-3.103-2.323-4.962-2.477c-2.224-0.184-4.166,0.938-5.774,2.458c-0.024,0.175-0.041,0.352-0.054,0.527
				c-0.174,2.388-0.341,4.837,0.327,7.136c1.6,5.51,6.824,6.127,11.185,3.525c0.156-0.064,0.313-0.126,0.465-0.198
				c0.982-0.466,1.915-1.05,2.783-1.702c1.756-1.319,3.252-2.94,4.411-4.806C535.577,207.757,534.86,207.26,534.445,207.58z
				 M530.215,212.414c-0.616,0.482-1.276,0.897-1.951,1.287c0.783-2.063,1.32-4.217,1.422-6.372
				c0.513,0.183,1.032,0.353,1.557,0.502c0.861,0.244,1.796,0.431,2.712,0.445C532.947,209.852,531.692,211.258,530.215,212.414z"/>
			<path id="XMLID_220_" style="fill:#9E6555;" d="M531.794,206.065c0.06,0.514,0.194,1.037,0.123,1.548
				c-0.051,0.366-0.206,0.714-0.221,1.083c-0.041,0.979,1.244,2.755,2.366,2.174c0.256-0.133,0.433-0.378,0.585-0.624
				c1.017-1.646,2.197-7.719-1.62-6.343c-0.553,0.199-1.031,0.645-1.191,1.21C531.747,205.426,531.756,205.744,531.794,206.065z"/>
			<path style="fill:#110809;" d="M533.16,206.127c0.231-0.222,0.637-0.16,0.865,0.065c0.227,0.225,0.305,0.563,0.311,0.883
				c0.015,0.763-0.341,1.526-0.936,2.005"/>
			<path style="fill:none;stroke:#110809;stroke-width:0.5;stroke-miterlimit:10;" d="M226.986,330.615
				c-7.192-5.872-17.343-5.714-26.512-7.173c-6.688-1.064-13.215-3.138-19.292-6.128"/>
			<path style="fill:none;stroke:#110809;stroke-width:0.5;stroke-miterlimit:10;" d="M156.274,251.805
				c-2.659,9.143-5.318,18.285-7.976,27.428c-0.539,1.854-1.035,4.008,0.073,5.59c1.111,1.584,3.31,1.849,5.24,1.971
				c9.275,0.586,18.551,1.173,27.826,1.759"/>
			<path style="fill:none;stroke:#110809;stroke-width:0.5;stroke-miterlimit:10;" d="M522.234,315.305
				c-6.726,3.173-13.343,6.578-19.834,10.207c-3.443,1.924-6.926,3.973-9.455,7c-4.436,5.307-5.236,12.674-5.742,19.572
				c-1.122,15.291-2.895,24.696-2.98,40.028"/>
			<path style="fill:none;stroke:#110809;stroke-width:0.5;stroke-miterlimit:10;" d="M540.109,240.357
				c-2.78,6.855-3.9,14.377-3.237,21.745"/>
			<path style="fill:none;stroke:#110809;stroke-width:0.5;stroke-miterlimit:10;" d="M562.758,268.858
				c0.635-5.228,1.082-10.479,1.339-15.739"/>
			<path style="fill:none;stroke:#110809;stroke-width:0.5;stroke-miterlimit:10;" d="M519.36,259.081
				c-0.974-4.281-1.4-8.686-1.265-13.074"/>
			<path style="fill:#FFF5F5;" d="M189.484,205.94c-0.274-0.394-0.668-0.696-1.219-0.858c-0.859-0.254-1.78-0.124-2.661,0.036
				c-1.507,0.273-3,0.627-4.469,1.059c-1.707,0.502-2.229,0.565-3.837-0.298c-1.162-0.624-2.323-1.247-3.494-1.854
				c-0.997-0.516-2.066-1.022-3.219-0.928c-2.38,0.194-3.007,2.628-2.79,4.659c0.113,1.057,0.516,2.04,1.289,2.785
				c0.77,0.742,1.75,1.196,2.633,1.781c0.958,0.634,1.822,1.415,2.592,2.268c0.061,1.039,0.305,2.069,0.76,3.023
				c0.804,1.689,2.334,3.139,4.19,3.373c1.713,0.216,4.093-0.241,5.624-1.02c2.836-1.442,4.12-4.791,4.651-7.928
				C189.803,210.441,190.558,207.482,189.484,205.94z M171.835,210.852c-0.835-0.497-1.798-0.956-2.327-1.811
				c-0.56-0.904-0.583-2.132-0.383-3.149c0.235-1.197,1.131-1.772,2.331-1.515c1.135,0.244,2.181,0.93,3.206,1.451
				c0.977,0.497,1.957,1.017,2.963,1.458c-0.025,0.018-0.051,0.035-0.075,0.053c-1.734,1.306-2.821,3.279-3.154,5.373
				c-0.024-0.021-0.044-0.045-0.068-0.066C173.555,211.973,172.716,211.377,171.835,210.852z"/>
			<path id="XMLID_197_" style="fill:#E0AC9B;" d="M173.505,208.194c-0.266,1.799-0.939,3.575-3.12,2.844
				c-3.671-1.231-4.349-6.654-0.817-8.435c0.699-0.353,1.557-0.47,2.264-0.133c0.264,0.126,0.498,0.309,0.703,0.519
				c0.935,0.955,1.226,2.389,1.124,3.721C173.624,207.167,173.581,207.682,173.505,208.194z"/>
			<path style="fill:#110809;" d="M171.231,205.599c-0.595-0.115-1.253,0.11-1.624,0.59c-0.371,0.479-0.416,1.198-0.078,1.7
				c0.339,0.503,1.05,0.729,1.603,0.482"/>
			<g>
				
					<line style="fill:none;stroke:#110809;stroke-width:2;stroke-miterlimit:10;" x1="404.882" y1="268.091" x2="400.266" y2="294.732"/>
				
					<line style="fill:none;stroke:#4DBCB4;stroke-width:2;stroke-miterlimit:10;" x1="391.28" y1="262.636" x2="395.211" y2="289.876"/>
				
					<line style="fill:none;stroke:#E53076;stroke-width:2;stroke-miterlimit:10;" x1="400.266" y1="258.06" x2="398.011" y2="289.876"/>
				<rect x="389.821" y="281.752" style="fill:#7843AB;" width="16.38" height="19.402"/>
			</g>
			<path id="XMLID_698_" style="fill:#110809;" d="M259.998,397.329c0.816,2.399,1.84,4.405,4.651,5.747
				c4.132,1.973,9.163,0.806,13.444,2.43c0.386,0.146,0.775,0.323,1.051,0.63c0.538,0.598,0.493,1.554,0.111,2.263
				c-2.053,3.812-9.803,3.254-13.477,3.764c-4.623,0.642-9.245,1.285-13.868,1.927c-1.229,0.176-2.361-0.697-2.504-1.931
				l-1.535-13.276l-0.241-1.961c-0.4-3.25,1.951-6.194,5.209-6.522c2.816-0.284,5.437,1.6,6.329,4.335
				C259.463,395.64,259.719,396.508,259.998,397.329z"/>
			<path style="fill:#FFC200;" d="M240.971,318.557c-4.926-0.886-10.649,2.18-12.497,7.188c-0.744,2.018-0.838,4.222-0.685,6.367
				c0.258,3.624,1.186,7.163,2.111,10.677c2.34,8.891,2.592,19.31,5.25,28.11c1.595,5.281,2.59,11.354,3.834,16.717
				c0.658,2.837,3.737,9.713,7.688,11.165c1.404,0.516,2.909,0.617,4.403,0.539c3.909-0.204,8.255-0.694,10.795-3.672
				c2.51-2.942,2.346-7.245,2.046-11.1c-1.091-14.021-1.689-27.844-4.655-41.692c-1.031-4.815-2.346-9.773-4.616-14.165
				C251.646,322.89,247.325,319.7,240.971,318.557z"/>
			<path style="fill:none;stroke:#110809;stroke-width:0.5;stroke-miterlimit:10;" d="M259.998,397.329
				c5.682-4.39,3.568-9.571,3.426-17.426"/>
			<path style="fill:none;stroke:#110809;stroke-width:0.5;stroke-miterlimit:10;" d="M227.499,331.311
				c7.366,27.686,7.97,66.018,20.372,67.573"/>
		</g>
		<path style="fill:#E3E6F7;" d="M141.663,199.729c-12.393,4.423-21.897,14.966-24.233,26.883c-0.88,4.488-0.382,9.891,3.767,12.45
			c2.905,1.792,6.893,1.595,10.053,0.205c3.161-1.39,5.63-3.8,7.801-6.308c3.732-4.313,6.82-9.086,9.152-14.148
			C151.014,212.711,154.825,195.032,141.663,199.729z"/>
		
			<line style="fill:none;stroke:#110809;stroke-width:0.5;stroke-miterlimit:10;" x1="94.327" y1="436.714" x2="250.719" y2="436.714"/>
		
			<line style="fill:none;stroke:#110809;stroke-width:0.5;stroke-miterlimit:10;" x1="527.678" y1="436.714" x2="654.537" y2="436.714"/>
		
			<line style="fill:none;stroke:#110809;stroke-width:0.5;stroke-miterlimit:10;" x1="303.87" y1="459.318" x2="418.883" y2="459.318"/>
		
			<line style="fill:none;stroke:#110809;stroke-width:0.5;stroke-miterlimit:10;" x1="474.506" y1="436.714" x2="506.28" y2="436.714"/>
		
			<line style="fill:none;stroke:#110809;stroke-width:0.5;stroke-miterlimit:10;" x1="393.046" y1="432.413" x2="549.438" y2="432.413"/>
		
			<line style="fill:none;stroke:#110809;stroke-width:0.5;stroke-miterlimit:10;" x1="166.676" y1="433.18" x2="323.068" y2="433.18"/>
		<g>
			<path style="fill:none;stroke:#110809;stroke-width:2;stroke-miterlimit:10;" d="M361.005,367.09
				c6.004-4.279,12.214-8.652,19.398-10.308c7.184-1.656,15.669,0.066,19.951,6.068c4.88,6.84,2.784,16.293-0.082,24.192
				c-0.13,0.357-0.325,0.769-0.701,0.823c-0.376,0.054-0.601-0.646-0.222-0.668"/>
			<g>
				<rect id="XMLID_16_" x="341.251" y="372.027" style="fill:#110809;" width="2.963" height="67.056"/>
				<path id="XMLID_15_" style="fill:none;stroke:#110809;stroke-width:2;stroke-miterlimit:10;" d="M316.824,452.798
					c0-9.652,17.078-13.7,25.612-13.716c10.158-0.02,25.612,3.725,25.612,13.716"/>
				
					<line id="XMLID_14_" style="fill:none;stroke:#110809;stroke-width:2;stroke-miterlimit:10;" x1="342.723" y1="455.379" x2="342.723" y2="439.347"/>
				<path id="XMLID_13_" style="fill:#110809;" d="M372.239,455.127c0,2.315-1.876,4.191-4.191,4.191
					c-2.315,0-4.191-1.876-4.191-4.191c0-2.315,1.876-4.191,4.191-4.191C370.362,450.936,372.239,452.812,372.239,455.127z"/>
				<path id="XMLID_12_" style="fill:#110809;" d="M346.839,455.127c0,2.315-1.876,4.191-4.191,4.191
					c-2.315,0-4.191-1.876-4.191-4.191c0-2.315,1.876-4.191,4.191-4.191C344.962,450.936,346.839,452.812,346.839,455.127z"/>
				<path id="XMLID_11_" style="fill:#110809;" d="M321.438,455.127c0,2.315-1.876,4.191-4.191,4.191
					c-2.315,0-4.191-1.876-4.191-4.191c0-2.315,1.876-4.191,4.191-4.191C319.562,450.936,321.438,452.812,321.438,455.127z"/>
			</g>
			<path style="fill:#7843AB;" d="M405.534,392.289c0.076-0.348,0.139-0.721,0.174-1.154c0.525-6.577-7.694-7.46-12.456-8.028
				c-5.711-0.682-12.779-1.104-16.325-6.358c-4.332-6.419-4.748-15.687-5.106-23.133c-0.32-6.663-0.651-13.521-3.432-19.584
				c-6.05-13.187-24.112-13.554-36.72-13.479c-7.695,0.046-15.806,1.263-21.825,6.058c-4.823,3.841-7.793,9.628-9.323,15.601
				c-1.53,5.973-1.747,12.193-1.936,18.356c-0.363,11.821,1.52,31.613,17.453,31.63L405.534,392.289z"/>
		</g>
	</g>
</g>
</svg>
